<?xml version="1.0" standalone="no"?><!DOCTYPE svg PUBLIC "-//W3C//DTD SVG 1.1//EN" "http://www.w3.org/Graphics/SVG/1.1/DTD/svg11.dtd"><svg t="1769085426336" class="icon" viewBox="0 0 1024 1024" version="1.1" xmlns="http://www.w3.org/2000/svg" p-id="3117" xmlns:xlink="http://www.w3.org/1999/xlink" width="32" height="32"><path d="M697.17 856.5H344.83a95.38 95.38 0 0 1-95.27-95.27V257.77a95.38 95.38 0 0 1 95.27-95.27h352.34a95.38 95.38 0 0 1 95.27 95.27v503.46a95.38 95.38 0 0 1-95.27 95.27z m-352.34-659a60.34 60.34 0 0 0-60.27 60.27v503.46a60.34 60.34 0 0 0 60.27 60.27h352.34a60.34 60.34 0 0 0 60.27-60.27V257.77a60.34 60.34 0 0 0-60.27-60.27z" p-id="3118"></path><path d="M771.53 583.84H270a17.5 17.5 0 0 1 0-35h501.53a17.5 17.5 0 0 1 0 35zM362.5 446.28a17.49 17.49 0 0 1-17.5-17.5v-93.12a17.5 17.5 0 0 1 35 0v93.12a17.5 17.5 0 0 1-17.5 17.5zM362.5 762.15a17.5 17.5 0 0 1-17.5-17.5v-93.12a17.5 17.5 0 0 1 35 0v93.12a17.51 17.51 0 0 1-17.5 17.5z" p-id="3119"></path></svg>