<?xml version="1.0" standalone="no"?><!DOCTYPE svg PUBLIC "-//W3C//DTD SVG 1.1//EN" "http://www.w3.org/Graphics/SVG/1.1/DTD/svg11.dtd"><svg t="1769085442133" class="icon" viewBox="0 0 1024 1024" version="1.1" xmlns="http://www.w3.org/2000/svg" p-id="3437" xmlns:xlink="http://www.w3.org/1999/xlink" width="32" height="32"><path d="M269.52 756a17.51 17.51 0 0 1-14.81-26.8l36-57.46a17.5 17.5 0 0 1 29.65 18.6l-36 57.46a17.5 17.5 0 0 1-14.84 8.2zM760 756a17.5 17.5 0 0 1-14.84-8.21l-36-57.45a17.5 17.5 0 1 1 29.65-18.6l36 57.46A17.5 17.5 0 0 1 760 756z" p-id="3438"></path><path d="M782.77 697H247.25A54.3 54.3 0 0 1 193 642.76V315.24A54.3 54.3 0 0 1 247.25 261h535.52A54.3 54.3 0 0 1 837 315.24v327.52A54.3 54.3 0 0 1 782.77 697zM247.25 296A19.26 19.26 0 0 0 228 315.24v327.52A19.26 19.26 0 0 0 247.25 662h535.52A19.26 19.26 0 0 0 802 642.76V315.24A19.26 19.26 0 0 0 782.77 296z" p-id="3439"></path><path d="M819.53 621h-589a17.5 17.5 0 0 1 0-35h589a17.5 17.5 0 0 1 0 35zM607.9 531.5c-13.49 0-25-9.77-30.85-26.15L534.2 384.86a17.5 17.5 0 1 1 33-11.72l40.7 114.52 40.73-114.52a17.5 17.5 0 0 1 33 11.72l-42.87 120.49c-5.82 16.38-17.36 26.15-30.86 26.15zM475.36 396H362.5a17.5 17.5 0 0 1 0-35h112.86a17.5 17.5 0 0 1 0 35z" p-id="3440"></path><path d="M418.93 531.5a17.5 17.5 0 0 1-17.5-17.5V388.07a17.5 17.5 0 0 1 35 0V514a17.49 17.49 0 0 1-17.5 17.5z" p-id="3441"></path></svg>