<?xml version="1.0" standalone="no"?><!DOCTYPE svg PUBLIC "-//W3C//DTD SVG 1.1//EN" "http://www.w3.org/Graphics/SVG/1.1/DTD/svg11.dtd"><svg t="1769085434577" class="icon" viewBox="0 0 1024 1024" version="1.1" xmlns="http://www.w3.org/2000/svg" p-id="3277" xmlns:xlink="http://www.w3.org/1999/xlink" width="32" height="32"><path d="M523 831a319 319 0 1 1 0-638c8.32 0 16.79 0.34 25.18 1a21.9 21.9 0 0 1 12 38.86 180.12 180.12 0 1 0 244 264 21.91 21.91 0 0 1 37.81 15v0.14A319 319 0 0 1 523 831z m-8.61-602.87a284 284 0 1 0 291 314.71 215.12 215.12 0 0 1-291-314.71z" p-id="3278"></path><path d="M766 443.3H631.82a20.38 20.38 0 0 1-14.41-34.79l106.38-106.37h-98.4a17.5 17.5 0 0 1 0-35h133.7a20.37 20.37 0 0 1 14.41 34.78L667.12 408.3H766a17.5 17.5 0 0 1 0 35z m-6.95-141.16z" p-id="3279"></path></svg>