<?xml version="1.0" standalone="no"?><!DOCTYPE svg PUBLIC "-//W3C//DTD SVG 1.1//EN" "http://www.w3.org/Graphics/SVG/1.1/DTD/svg11.dtd"><svg t="1769083118371" class="icon" viewBox="0 0 1024 1024" version="1.1" xmlns="http://www.w3.org/2000/svg" p-id="2501" xmlns:xlink="http://www.w3.org/1999/xlink" width="32" height="32"><path d="M239.0016 439.5008c-2.8672 0-5.5296-1.024-7.5776-3.2768l-68.608-74.9568C133.12 328.704 135.3728 277.9136 167.936 248.2176s83.1488-27.4432 113.0496 5.12l36.6592 40.1408c3.8912 4.096 3.4816 10.6496-0.6144 14.5408-4.096 3.8912-10.6496 3.4816-14.5408-0.6144l-36.6592-40.1408c-22.1184-24.1664-59.8016-26.0096-83.968-3.8912-11.6736 10.6496-18.432 25.1904-19.2512 41.1648-0.8192 15.9744 4.7104 31.1296 15.36 42.8032l68.608 74.9568c3.8912 4.096 3.4816 10.6496-0.6144 14.5408-2.048 1.8432-4.5056 2.6624-6.9632 2.6624zM793.6 439.5008c-2.4576 0-4.9152-0.8192-6.9632-2.6624-4.096-3.8912-4.5056-10.24-0.6144-14.5408l68.608-74.9568c22.1184-24.1664 20.2752-61.8496-3.8912-83.968-11.6736-10.6496-26.8288-16.1792-42.8032-15.36-15.9744 0.8192-30.5152 7.5776-41.1648 19.2512l-36.6592 40.1408c-3.8912 4.096-10.24 4.5056-14.5408 0.6144s-4.5056-10.24-0.6144-14.5408l36.6592-40.1408c14.336-15.7696 33.9968-24.7808 55.5008-25.8048 21.2992-1.024 41.7792 6.3488 57.5488 20.6848 32.5632 29.696 34.816 80.4864 5.12 113.0496L801.1776 436.224c-2.048 2.2528-4.7104 3.2768-7.5776 3.2768zM281.1904 933.888c-22.9376 0-45.6704-8.192-63.8976-24.7808-38.7072-35.4304-41.3696-95.6416-6.144-134.3488l39.3216-43.2128c3.8912-4.096 10.24-4.5056 14.5408-0.6144s4.5056 10.24 0.6144 14.5408l-39.3216 43.2128c-27.648 30.3104-25.3952 77.6192 4.9152 105.2672s77.6192 25.3952 105.2672-4.9152l39.3216-43.2128c3.8912-4.096 10.24-4.5056 14.5408-0.6144 4.096 3.8912 4.5056 10.24 0.6144 14.5408L351.6416 903.168c-18.8416 20.48-44.6464 30.72-70.4512 30.72zM746.0864 933.888c-25.8048 0-51.6096-10.4448-70.2464-30.9248l-39.3216-43.2128c-3.8912-4.096-3.4816-10.6496 0.6144-14.5408 4.096-3.8912 10.6496-3.4816 14.5408 0.6144l39.3216 43.2128c27.8528 30.3104 74.9568 32.5632 105.2672 4.9152 30.3104-27.8528 32.5632-74.9568 4.9152-105.2672l-39.3216-43.008c-3.8912-4.096-3.4816-10.6496 0.6144-14.5408s10.6496-3.4816 14.5408 0.6144l39.3216 43.2128c35.2256 38.7072 32.3584 98.9184-6.144 134.3488-18.2272 16.5888-41.1648 24.576-64.1024 24.576zM603.9552 237.9776c-5.7344 0-10.24-4.5056-10.24-10.24V143.36c0-43.6224-35.4304-79.0528-79.0528-79.0528S435.6096 99.7376 435.6096 143.36v84.3776c0 5.7344-4.5056 10.24-10.24 10.24s-10.24-4.5056-10.24-10.24V143.36c0-54.8864 44.6464-99.5328 99.5328-99.5328s99.5328 44.6464 99.5328 99.5328v84.3776c0 5.7344-4.5056 10.24-10.24 10.24z" fill="" p-id="2502"></path><path d="M514.4576 418.2016c-5.7344 0-10.24-4.5056-10.24-10.24v-180.224c0-5.7344 4.5056-10.24 10.24-10.24s10.24 4.5056 10.24 10.24v180.224c0 5.7344-4.5056 10.24-10.24 10.24zM383.3856 493.9776c-1.6384 0-3.4816-0.4096-4.9152-1.2288l-136.8064-75.776c-4.9152-2.6624-6.7584-9.0112-4.096-13.9264 2.6624-4.9152 9.0112-6.7584 13.9264-4.096l136.8064 75.776c4.9152 2.6624 6.7584 9.0112 4.096 13.9264-1.8432 3.4816-5.3248 5.3248-9.0112 5.3248zM641.2288 493.9776c-3.6864 0-7.168-1.8432-9.0112-5.3248-2.6624-4.9152-1.024-11.264 4.096-13.9264l137.0112-75.776c4.9152-2.6624 11.264-1.024 13.9264 4.096 2.6624 4.9152 1.024 11.264-4.096 13.9264l-137.0112 75.776c-1.4336 0.8192-3.2768 1.2288-4.9152 1.2288z" fill="" p-id="2503"></path><path d="M514.6624 980.7872c-16.1792 0-30.3104-10.8544-37.0688-28.2624l-7.5776-19.0464c-2.048-5.3248 0.4096-11.264 5.7344-13.312 5.3248-2.048 11.264 0.4096 13.312 5.7344l7.5776 19.0464c3.6864 9.6256 10.4448 15.1552 18.0224 15.1552 7.5776 0 14.336-5.7344 18.0224-15.1552l29.0816-76.1856 5.5296-1.024c80.2816-15.36 146.6368-65.3312 184.9344-132.3008-0.8192-0.4096-1.6384-0.8192-2.4576-1.4336l-114.2784-85.4016V489.472l-120.832-69.632-120.832 69.632v139.4688l131.072 75.5712-1.6384 188.8256h-10.24c-161.1776 0-292.4544-131.2768-292.4544-292.4544v-100.9664c0-161.1776 131.2768-292.4544 292.4544-292.4544h2.8672c161.1776 0 292.4544 131.2768 292.4544 292.4544v100.9664c0 138.0352-97.0752 257.4336-231.8336 286.1056l-24.9856 65.536c-6.7584 17.408-20.8896 28.2624-36.864 28.2624z m-1.4336-752.8448c-149.9136 0-271.9744 122.0608-271.9744 271.9744v100.9664c0 146.6368 116.5312 266.4448 261.7344 271.7696l1.2288-156.2624-131.072-75.5712v-163.2256l141.312-81.5104 141.312 81.5104v160.9728l105.6768 79.0528c16.9984-35.6352 26.4192-75.1616 26.4192-116.736v-100.9664c0-149.9136-122.0608-271.9744-271.9744-271.9744h-2.6624z" fill="" p-id="2504"></path></svg>