<?xml version="1.0" standalone="no"?><!DOCTYPE svg PUBLIC "-//W3C//DTD SVG 1.1//EN" "http://www.w3.org/Graphics/SVG/1.1/DTD/svg11.dtd"><svg t="1769085349577" class="icon" viewBox="0 0 1024 1024" version="1.1" xmlns="http://www.w3.org/2000/svg" p-id="12724" xmlns:xlink="http://www.w3.org/1999/xlink" width="32" height="32"><path d="M189.44 290.730667l212.906667-26.602667 5.290666 42.325333-212.906666 26.602667-5.290667-42.325333z m0 110.165333l212.906667-26.602667 5.290666 42.325334-212.906666 26.602666-5.290667-42.325333z m0.042667 110.272l212.906666-26.624 5.269334 42.325333-212.906667 26.624-5.269333-42.325333z m0 110.165333l212.906666-26.624 5.290667 42.325334-212.906667 26.602666-5.290666-42.304z" p-id="12725"></path><path d="M915.626667 202.666667L549.44 140.16a64 64 0 0 0-74.666667 0L108.373333 202.666667a21.333333 21.333333 0 0 0-17.706666 21.333333v640a21.333333 21.333333 0 0 0 24.96 21.013333l371.306666-64h50.133334l371.306666 64a21.333333 21.333333 0 0 0 24.96-21.013333v-640a21.333333 21.333333 0 0 0-17.706666-21.333333zM490.666667 192a21.333333 21.333333 0 1 1 42.666666 0v586.666667h-42.666666V192zM133.333333 242.026667L448 188.053333v511.36l-314.666667 53.973334v-511.36z m0 554.666666L448 742.72v42.026667l-314.666667 53.973333v-42.026667z m442.666667-11.946666v-42.026667l314.666667 53.973333v42.026667L576 784.746667z m314.666667-31.36L576 699.413333V188.053333l314.666667 53.973334v511.36z" p-id="12726"></path><path d="M616.106667 306.709333l5.290666-42.325333 212.906667 26.602667-5.290667 42.325333-212.906666-26.602667z m-0.021334 110.186667l5.290667-42.325333 212.906667 26.602666-5.312 42.325334-212.885334-26.602667z m-0.149333 110.293333l5.290667-42.325333 212.906666 26.624-5.290666 42.325333-212.906667-26.624z m0.085333 110.229334l5.290667-42.325334 212.906667 26.602667-5.290667 42.325333-212.906667-26.602666z" p-id="12727"></path></svg>