<?xml version="1.0" standalone="no"?><!DOCTYPE svg PUBLIC "-//W3C//DTD SVG 1.1//EN" "http://www.w3.org/Graphics/SVG/1.1/DTD/svg11.dtd"><svg t="1769086609240" class="icon" viewBox="0 0 1024 1024" version="1.1" xmlns="http://www.w3.org/2000/svg" p-id="2070" xmlns:xlink="http://www.w3.org/1999/xlink" width="32" height="32"><path d="M512 826.368c-35.84 0-70.656-1.024-95.232-4.096C223.232 800.768 71.68 605.184 71.68 377.856c0-58.368 11.264-109.568 32.768-150.528 5.12-10.24 17.408-14.336 27.648-8.192 10.24 5.12 14.336 17.408 8.192 27.648-18.432 35.84-28.672 79.872-28.672 132.096 0 206.848 136.192 384 309.248 403.456 45.056 5.12 136.192 5.12 181.248 0 174.08-20.48 309.248-197.632 309.248-404.48 0-52.224-9.216-96.256-28.672-132.096-5.12-10.24-1.024-22.528 8.192-27.648 10.24-5.12 22.528-1.024 27.648 8.192 21.504 41.984 32.768 92.16 32.768 150.528 0 227.328-151.552 422.912-345.088 444.416-22.528 3.072-58.368 5.12-94.208 5.12z" p-id="2071"></path><path d="M260.096 293.888c-11.264 0-20.48-9.216-20.48-20.48 0-29.696-23.552-53.248-53.248-53.248-17.408 0-33.792 8.192-44.032 22.528-6.144 9.216-19.456 11.264-28.672 4.096-9.216-6.144-11.264-19.456-4.096-28.672 17.408-24.576 46.08-38.912 76.8-38.912 52.224 0 94.208 41.984 94.208 94.208 0 11.264-9.216 20.48-20.48 20.48zM763.904 293.888c-11.264 0-20.48-9.216-20.48-20.48 0-52.224 41.984-94.208 94.208-94.208 29.696 0 59.392 15.36 76.8 39.936 6.144 9.216 4.096 21.504-5.12 28.672-9.216 6.144-21.504 4.096-28.672-5.12-10.24-14.336-27.648-23.552-44.032-23.552-29.696 0-53.248 23.552-53.248 53.248 1.024 12.288-8.192 21.504-19.456 21.504z" p-id="2072"></path><path d="M428.032 274.432c-11.264 0-20.48-9.216-20.48-20.48 0-34.816-28.672-63.488-63.488-63.488-34.816 0-63.488 28.672-63.488 63.488 0 11.264-9.216 20.48-20.48 20.48s-20.48-9.216-20.48-20.48c0-57.344 47.104-104.448 104.448-104.448s104.448 47.104 104.448 104.448c0 11.264-9.216 20.48-20.48 20.48z" p-id="2073"></path><path d="M595.968 253.952c-11.264 0-20.48-9.216-20.48-20.48 0-34.816-28.672-63.488-63.488-63.488s-63.488 28.672-63.488 63.488c0 11.264-9.216 20.48-20.48 20.48s-20.48-9.216-20.48-20.48c0-57.344 47.104-104.448 104.448-104.448s104.448 47.104 104.448 104.448c0 11.264-9.216 20.48-20.48 20.48z" p-id="2074"></path><path d="M763.904 274.432c-11.264 0-20.48-9.216-20.48-20.48 0-34.816-28.672-63.488-63.488-63.488-34.816 0-63.488 28.672-63.488 63.488 0 11.264-9.216 20.48-20.48 20.48s-20.48-9.216-20.48-20.48c0-57.344 47.104-104.448 104.448-104.448s104.448 47.104 104.448 104.448c0 11.264-9.216 20.48-20.48 20.48zM673.792 894.976H350.208c-30.72 0-56.32-25.6-56.32-56.32s25.6-56.32 56.32-56.32H409.6c11.264 0 20.48 9.216 20.48 20.48s-9.216 20.48-20.48 20.48h-59.392c-8.192 0-15.36 7.168-15.36 15.36s7.168 15.36 15.36 15.36h323.584c8.192 0 15.36-7.168 15.36-15.36s-7.168-15.36-15.36-15.36h-58.368c-11.264 0-20.48-9.216-20.48-20.48s9.216-20.48 20.48-20.48h58.368c30.72 0 56.32 25.6 56.32 56.32s-25.6 56.32-56.32 56.32zM450.56 664.576c-4.096 0-8.192-3.072-9.216-7.168-16.384-45.056-25.6-105.472-25.6-167.936 0-6.144 4.096-10.24 10.24-10.24s10.24 4.096 10.24 10.24c0 60.416 8.192 117.76 23.552 161.792 2.048 5.12-1.024 11.264-6.144 13.312H450.56zM573.44 663.552c-1.024 0-2.048 0-3.072-1.024-5.12-2.048-8.192-7.168-6.144-13.312 14.336-43.008 22.528-101.376 22.528-160.768 0-6.144 4.096-10.24 10.24-10.24s10.24 4.096 10.24 10.24c0 61.44-9.216 121.856-24.576 166.912-1.024 5.12-5.12 8.192-9.216 8.192zM422.912 697.344c-1.024 0-2.048 0-3.072-1.024-62.464-22.528-115.712-70.656-146.432-131.072-2.048-5.12 0-11.264 4.096-13.312 5.12-2.048 11.264 0 13.312 4.096 27.648 55.296 76.8 99.328 134.144 120.832 5.12 2.048 8.192 8.192 6.144 13.312 0 4.096-4.096 7.168-8.192 7.168zM590.848 698.368c-4.096 0-8.192-3.072-9.216-7.168-2.048-5.12 1.024-11.264 6.144-13.312 45.056-15.36 83.968-43.008 112.64-80.896 10.24-12.288 19.456-25.6 26.624-41.984 2.048-5.12 8.192-7.168 13.312-5.12 5.12 2.048 7.168 8.192 5.12 13.312-8.192 18.432-18.432 34.816-28.672 47.104-31.744 39.936-73.728 69.632-121.856 87.04-2.048 1.024-3.072 1.024-4.096 1.024z" p-id="2075"></path></svg>