<?xml version="1.0" standalone="no"?><!DOCTYPE svg PUBLIC "-//W3C//DTD SVG 1.1//EN" "http://www.w3.org/Graphics/SVG/1.1/DTD/svg11.dtd"><svg t="1769085335926" class="icon" viewBox="0 0 1024 1024" version="1.1" xmlns="http://www.w3.org/2000/svg" p-id="12405" xmlns:xlink="http://www.w3.org/1999/xlink" width="32" height="32"><path d="M894.826667 829.226667L876.8 640a21.333333 21.333333 0 0 0 19.093333-23.466667l-21.333333-192A85.333333 85.333333 0 0 0 789.973333 341.333333H789.333333v-128a21.333333 21.333333 0 0 0 21.333334-18.666666l10.666666-85.333334A21.333333 21.333333 0 0 0 800 85.333333h-234.666667a21.333333 21.333333 0 0 0-16 7.253334 21.333333 21.333333 0 0 0-5.333333 16.746666l10.666667 85.333334A21.333333 21.333333 0 0 0 576 213.333333v128h-128v-128a21.333333 21.333333 0 0 0 21.333333-18.666666l10.666667-85.333334A21.333333 21.333333 0 0 0 458.666667 85.333333h-234.666667a21.333333 21.333333 0 0 0-16 7.253334 21.333333 21.333333 0 0 0-5.333333 16.746666l10.666666 85.333334A21.333333 21.333333 0 0 0 234.666667 213.333333v128h-0.64A85.333333 85.333333 0 0 0 149.333333 424.746667l-21.333333 192a21.333333 21.333333 0 0 0 5.333333 16.533333A21.333333 21.333333 0 0 0 147.2 640l-18.026667 189.226667A64 64 0 0 0 160 949.333333h256a64 64 0 0 0 30.826667-120.106666L428.8 640h166.4l-18.026667 189.226667A64 64 0 0 0 608 949.333333h256a64 64 0 0 0 30.826667-120.106666zM775.786667 128l-5.333334 42.666667h-175.573333l-5.333333-42.666667h186.24zM618.666667 213.333333h128v128h-128v-128z m-184.213334-85.333333l-5.333333 42.666667h-175.573333l-5.333334-42.666667h186.24zM277.333333 213.333333h128v128h-128v-128z m-85.333333 212.693334A42.666667 42.666667 0 0 1 234.026667 384h555.946666A42.666667 42.666667 0 0 1 832 428.373333l3.52 30.293334h-141.013333v42.666666h145.706666l10.666667 96H173.12l10.666667-96h142.826666v-42.666666H188.48L192 428.373333a18.090667 18.090667 0 0 0 0-2.346666zM416 906.666667h-256a21.333333 21.333333 0 1 1 0-42.666667h256a21.333333 21.333333 0 0 1 0 42.666667z m-12.8-85.333334H172.8l17.28-181.333333h195.84l17.28 181.333333zM833.92 640l17.28 181.333333H620.8l17.28-181.333333h195.84z m30.08 266.666667h-256a21.333333 21.333333 0 1 1 0-42.666667h256a21.333333 21.333333 0 0 1 0 42.666667z" p-id="12406"></path></svg>