<?xml version="1.0" standalone="no"?><!DOCTYPE svg PUBLIC "-//W3C//DTD SVG 1.1//EN" "http://www.w3.org/Graphics/SVG/1.1/DTD/svg11.dtd"><svg t="1769085403469" class="icon" viewBox="0 0 1024 1024" version="1.1" xmlns="http://www.w3.org/2000/svg" p-id="13523" xmlns:xlink="http://www.w3.org/1999/xlink" width="32" height="32"><path d="M833.173333 362.666667v-70.4a21.333333 21.333333 0 0 0-21.333333-21.333334H201.493333a21.333333 21.333333 0 0 0-21.333333 21.333334V362.666667a326.933333 326.933333 0 0 0 199.466667 300.693333l-106.666667 274.133333 39.786667 15.466667 67.84-174.293333h262.826666l67.946667 174.506666 39.786667-15.466666-108.373334-278.4A327.04 327.04 0 0 0 833.173333 362.666667zM626.773333 736H397.226667l22.72-58.453333c28.245333 7.765333 57.429333 11.733333 86.72 11.733333a323.392 323.392 0 0 0 96-14.506667l24.106666 61.226667z m-120.106666-89.6a284.16 284.16 0 0 1-281.706667-249.706667h437.333333v-42.666666h-439.466666V313.6h567.68V362.666667c-0.234667 156.650667-127.189333 283.562667-283.84 283.733333zM347.413333 256a75.946667 75.946667 0 0 0 54.933334-23.466667v4.373334a21.333333 21.333333 0 0 0 21.333333 21.333333h61.653333a21.333333 21.333333 0 0 0 21.333334-21.333333V232.533333a76.053333 76.053333 0 0 0 109.866666 0v4.373334a21.333333 21.333333 0 0 0 21.333334 21.333333h61.546666a21.333333 21.333333 0 0 0 21.333334-21.333333v-114.133334a21.333333 21.333333 0 0 0-21.333334-21.333333H637.866667a21.333333 21.333333 0 0 0-21.333334 21.333333v4.48a75.84 75.84 0 0 0-109.866666 0v-4.48a21.333333 21.333333 0 0 0-21.333334-21.333333h-61.653333a21.333333 21.333333 0 0 0-21.333333 21.333333v4.48a75.626667 75.626667 0 0 0-54.933334-23.573333A76.48 76.48 0 0 0 273.92 160H96v42.666667h178.666667a76.266667 76.266667 0 0 0 72.746666 53.333333zM659.2 144.106667h18.88v71.68H659.2v-71.68z m-97.6 2.24a33.6 33.6 0 1 1 0 67.2 33.6 33.6 0 0 1 0-67.2z m-116.586667-2.24h18.986667v71.68h-18.986667v-71.68z m-97.6 2.24a33.6 33.6 0 1 1 0.213334 67.2 33.6 33.6 0 0 1-0.213334-67.2z" p-id="13524"></path></svg>