<?xml version="1.0" standalone="no"?><!DOCTYPE svg PUBLIC "-//W3C//DTD SVG 1.1//EN" "http://www.w3.org/Graphics/SVG/1.1/DTD/svg11.dtd"><svg t="1769083167800" class="icon" viewBox="0 0 1024 1024" version="1.1" xmlns="http://www.w3.org/2000/svg" p-id="18303" xmlns:xlink="http://www.w3.org/1999/xlink" width="32" height="32"><path d="M935.573333 561.066667l-57.173333-290.133334a161.706667 161.706667 0 0 0-189.76-127.146666l-14.186667 2.773333A287.146667 287.146667 0 0 0 349.866667 145.92l-10.666667-2.133333A161.493333 161.493333 0 0 0 149.333333 270.933333L91.84 561.066667a161.493333 161.493333 0 0 0 127.146667 189.653333l7.573333 1.493333a160 160 0 0 0 86.826667-6.826666A177.706667 177.706667 0 0 0 362.666667 805.013333v99.413334a21.333333 21.333333 0 0 0 21.333333 21.333333h256a21.333333 21.333333 0 0 0 21.333333-21.333333V804.693333a180.416 180.416 0 0 0 50.133334-60.586666 158.634667 158.634667 0 0 0 89.706666 8.106666l7.573334-1.493333a161.6 161.6 0 0 0 126.826666-189.653333zM234.666667 710.4l-7.466667-1.493333a118.826667 118.826667 0 0 1-93.546667-139.626667L190.933333 279.253333a118.506667 118.506667 0 0 1 114.453334-96A285.653333 285.653333 0 0 0 224 384c0 48.469333 12.224 96.149333 35.52 138.666667a272 272 0 0 1 33.813333 130.453333v9.92c0 14.378667 1.706667 28.693333 5.12 42.666667a117.333333 117.333333 0 0 1-63.786666 4.693333z m384 172.693333H405.333333v-53.333333a178.026667 178.026667 0 0 0 67.626667 12.906667h78.08c23.189333 0 46.144-4.48 67.626667-13.226667v53.653333z m69.333333-229.866666v9.813333a137.066667 137.066667 0 0 1-136.96 136.96h-78.08a136.853333 136.853333 0 0 1-136.96-136.96v-9.92a314.666667 314.666667 0 0 0-39.146667-151.04A246.08 246.08 0 0 1 266.666667 384c0-135.488 109.845333-245.333333 245.333333-245.333333h3.306667c184.042667 2.24 300.16 198.784 213.333333 361.066666a322.24 322.24 0 0 0-40.64 153.493334z m112 55.68l-7.466667 1.493333A117.333333 117.333333 0 0 1 725.333333 704c3.2-13.482667 4.864-27.306667 4.906667-41.173333v-9.813334a281.898667 281.898667 0 0 1 35.306667-133.333333A288 288 0 0 0 718.293333 183.466667a118.826667 118.826667 0 0 1 118.186667 96l57.28 290.026666A119.04 119.04 0 0 1 800 708.906667z" p-id="18304"></path><path d="M533.333333 653.44V618.666667h26.666667a21.333333 21.333333 0 0 0 20.48-15.466667l21.333333-74.666667a21.333333 21.333333 0 0 0-20.48-27.2h-138.666666a21.333333 21.333333 0 0 0-20.48 27.2l21.333333 74.666667a21.333333 21.333333 0 0 0 20.48 15.466667H490.666667v35.413333a172.16 172.16 0 0 0-53.333334 16.64l-18.56 10.666667 20.48 37.12 18.666667-10.666667c2.24-1.173333 54.933333-29.12 107.413333 0l18.666667 10.666667 20.693333-37.333334-18.666666-10.666666a143.466667 143.466667 0 0 0-52.693334-17.066667zM480 576l-9.173333-32h82.133333L544 576h-64z" p-id="18305"></path><path d="M352 325.333333a26.666667 26.666667 0 1 0 53.333333 0 26.666667 26.666667 0 1 0-53.333333 0Z" p-id="18306"></path><path d="M618.666667 325.333333a26.666667 26.666667 0 1 0 53.333333 0 26.666667 26.666667 0 1 0-53.333333 0Z" p-id="18307"></path></svg>