<?xml version="1.0" standalone="no"?><!DOCTYPE svg PUBLIC "-//W3C//DTD SVG 1.1//EN" "http://www.w3.org/Graphics/SVG/1.1/DTD/svg11.dtd"><svg t="1769083059053" class="icon" viewBox="0 0 1024 1024" version="1.1" xmlns="http://www.w3.org/2000/svg" p-id="14998" xmlns:xlink="http://www.w3.org/1999/xlink" width="32" height="32"><path d="M307.4048 936.5504h-78.6432c-22.9376 0-41.7792-20.48-41.7792-45.6704s18.8416-45.6704 41.7792-45.6704h20.0704c0.6144 0 1.2288-0.6144 1.2288-1.2288l2.8672-293.4784-74.5472-155.4432c-68.1984-3.4816-122.4704-60.0064-122.4704-128.8192v-10.24h96.0512L235.52 200.2944l36.864-109.9776L400.5888 362.496l376.6272 183.7056c15.36 5.12 99.1232 7.9872 141.7216-48.7424l18.432-24.576v30.72c0 65.9456-28.2624 98.5088-52.0192 114.0736-14.9504 9.8304-30.1056 14.336-40.1408 16.384 2.048 9.4208 3.2768 19.2512 3.2768 29.2864 0 40.3456-18.0224 78.0288-49.5616 103.2192-4.5056 3.4816-10.8544 2.8672-14.336-1.6384-3.4816-4.5056-2.8672-10.8544 1.6384-14.336 26.624-21.2992 41.7792-53.0432 41.7792-87.2448 0-12.0832-1.8432-23.7568-5.5296-34.6112l-4.3008-12.9024 13.7216-0.4096c3.072-0.2048 70.4512-3.8912 83.1488-84.1728-50.176 41.984-124.5184 41.3696-144.9984 33.9968l-1.024-0.4096L385.024 377.6512 275.6608 145.2032l-22.9376 68.1984L158.1056 276.48H76.8c5.12 55.0912 51.6096 98.304 108.1344 98.304h6.3488l82.1248 171.2128v2.4576l-2.8672 295.7312c0 11.8784-9.8304 21.7088-21.7088 21.7088h-20.0704c-11.4688 0-21.2992 11.4688-21.2992 25.1904 0 13.9264 9.6256 25.1904 21.2992 25.1904h78.6432c5.7344 0 15.9744-14.7456 21.7088-28.2624L376.0128 649.216c1.024-5.5296 6.5536-9.216 12.0832-7.9872 5.5296 1.024 9.216 6.5536 7.9872 12.0832l-47.3088 240.8448-0.4096 0.8192c-2.6624 6.7584-18.0224 41.5744-40.96 41.5744z" fill="" p-id="14999"></path><path d="M240.64 279.7568m-19.6608 0a19.6608 19.6608 0 1 0 39.3216 0 19.6608 19.6608 0 1 0-39.3216 0Z" fill="" p-id="15000"></path><path d="M559.3088 771.2768c-0.6144 0-1.4336 0-2.048-0.2048-100.352-20.6848-175.7184-109.7728-178.7904-113.664-3.6864-4.3008-3.072-10.8544 1.2288-14.336 4.3008-3.6864 10.8544-3.072 14.336 1.2288 0.8192 0.8192 73.9328 87.4496 167.3216 106.7008 5.5296 1.2288 9.0112 6.5536 7.9872 12.0832-1.024 4.9152-5.3248 8.192-10.0352 8.192zM766.1568 936.5504h-128.4096c-22.9376 0-41.7792-20.48-41.7792-45.6704s18.8416-45.6704 41.7792-45.6704h19.6608c0.4096-0.6144 1.2288-1.8432 2.2528-4.9152 11.8784-32.5632-4.5056-42.3936-6.3488-43.4176l-1.2288-0.6144-0.6144-0.6144c-25.1904-20.0704-39.7312-49.9712-39.7312-82.1248 0-57.7536 46.8992-104.6528 104.6528-104.6528 10.6496 0 21.2992 1.6384 31.744 4.9152 5.3248 1.6384 8.3968 7.3728 6.5536 12.9024-1.6384 5.3248-7.3728 8.3968-12.9024 6.5536-8.3968-2.6624-16.9984-4.096-25.6-4.096-46.4896 0-84.1728 37.6832-84.1728 84.1728 0 25.6 11.4688 49.3568 31.1296 65.536 12.288 6.7584 29.696 28.672 15.1552 68.1984-1.8432 5.12-6.9632 18.2272-21.0944 18.2272h-20.0704c-11.4688 0-21.2992 11.4688-21.2992 25.1904 0 13.9264 9.6256 25.1904 21.2992 25.1904h107.52l-1.8432-111.4112c0-5.7344 4.5056-10.24 10.0352-10.4448h0.2048c5.5296 0 10.24 4.5056 10.24 10.0352l2.8672 132.7104z" fill="" p-id="15001"></path></svg>