<?xml version="1.0" standalone="no"?><!DOCTYPE svg PUBLIC "-//W3C//DTD SVG 1.1//EN" "http://www.w3.org/Graphics/SVG/1.1/DTD/svg11.dtd"><svg t="1769086601726" class="icon" viewBox="0 0 1024 1024" version="1.1" xmlns="http://www.w3.org/2000/svg" p-id="1758" xmlns:xlink="http://www.w3.org/1999/xlink" width="32" height="32"><path d="M403.456 950.272c-88.064 0-169.984-33.792-232.448-96.256-62.464-62.464-96.256-145.408-96.256-233.472 0-88.064 34.816-171.008 96.256-233.472 16.384-16.384 33.792-32.768 49.152-47.104 8.192-8.192 21.504-7.168 28.672 1.024s7.168 21.504-1.024 28.672c-16.384 15.36-32.768 30.72-49.152 47.104-54.272 54.272-84.992 126.976-84.992 203.776 0 76.8 29.696 149.504 84.992 203.776 54.272 54.272 126.976 84.992 203.776 84.992h1.024c76.8 0 149.504-30.72 203.776-84.992l8.192-8.192c8.192-8.192 20.48-8.192 28.672 0 8.192 8.192 8.192 20.48 0 28.672l-8.192 8.192c-61.44 62.464-143.36 97.28-232.448 97.28zM773.12 683.008c-4.096 0-8.192-1.024-11.264-4.096-9.216-6.144-11.264-19.456-5.12-28.672 129.024-185.344 158.72-361.472 74.752-450.56-79.872-83.968-237.568-68.608-411.648 38.912-9.216 6.144-22.528 3.072-28.672-7.168-6.144-9.216-3.072-22.528 7.168-28.672 191.488-117.76 368.64-130.048 462.848-30.72 77.824 81.92 100.352 258.048-70.656 501.76-4.096 6.144-11.264 9.216-17.408 9.216z" p-id="1759"></path><path d="M363.52 948.224c-7.168 0-13.312-3.072-17.408-9.216-71.68-111.616-55.296-261.12 38.912-356.352 8.192-8.192 20.48-8.192 28.672 0 8.192 8.192 8.192 20.48 0 28.672-80.896 80.896-94.208 209.92-32.768 305.152 6.144 9.216 3.072 22.528-6.144 28.672-4.096 2.048-7.168 3.072-11.264 3.072z" p-id="1760"></path><path d="M400.384 617.472c-5.12 0-10.24-2.048-14.336-6.144-8.192-8.192-8.192-20.48 0-28.672 46.08-46.08 71.68-107.52 71.68-173.056s-25.6-126.976-71.68-173.056c-15.36-15.36-32.768-28.672-51.2-38.912-7.168 62.464-46.08 132.096-87.04 173.056-8.192 8.192-21.504 8.192-28.672 0-8.192-8.192-8.192-21.504 0-28.672 47.104-46.08 80.896-123.904 75.776-174.08-1.024-7.168 2.048-14.336 8.192-18.432 6.144-4.096 13.312-5.12 20.48-2.048 35.84 15.36 65.536 34.816 92.16 61.44 54.272 54.272 83.968 125.952 83.968 202.752S470.016 560.128 415.744 614.4c-5.12 1.024-10.24 3.072-15.36 3.072z" p-id="1761"></path><path d="M635.904 845.824c-5.12 0-10.24-2.048-14.336-6.144-8.192-8.192-8.192-20.48 0-28.672 48.128-48.128 111.616-74.752 178.176-76.8-12.288-23.552-29.696-46.08-48.128-65.536-97.28-97.28-253.952-108.544-364.544-25.6-9.216 7.168-21.504 5.12-28.672-4.096-7.168-9.216-5.12-21.504 4.096-28.672 125.952-95.232 306.176-82.944 417.792 29.696 30.72 30.72 55.296 68.608 71.68 108.544 3.072 6.144 1.024 14.336-3.072 19.456s-11.264 9.216-18.432 8.192c-66.56-7.168-133.12 16.384-180.224 63.488-4.096 4.096-9.216 6.144-14.336 6.144zM846.848 196.608c-5.12 0-10.24-2.048-14.336-6.144-8.192-8.192-8.192-21.504 0-28.672l41.984-40.96c8.192-8.192 21.504-8.192 28.672 0 8.192 8.192 8.192 21.504 0 28.672l-41.984 40.96c-4.096 4.096-9.216 6.144-14.336 6.144zM883.712 230.4c-8.192 0-15.36-4.096-18.432-12.288-5.12-10.24 0-22.528 10.24-27.648l46.08-21.504c10.24-5.12 22.528 0 27.648 10.24s0 22.528-10.24 27.648l-46.08 21.504c-3.072 1.024-6.144 2.048-9.216 2.048zM814.08 160.768c-3.072 0-5.12-1.024-8.192-2.048-10.24-4.096-15.36-16.384-10.24-26.624l20.48-46.08c4.096-10.24 16.384-15.36 26.624-10.24 10.24 4.096 15.36 16.384 10.24 26.624l-20.48 46.08c-3.072 8.192-10.24 12.288-18.432 12.288zM765.952 582.656c-5.12 0-10.24-2.048-13.312-6.144-7.168-7.168-7.168-19.456 0-27.648 7.168-7.168 19.456-7.168 27.648 0 7.168 7.168 7.168 19.456 0 27.648-5.12 4.096-9.216 6.144-14.336 6.144z m0-20.48c-1.024 0-1.024 0 0 0-1.024 1.024-1.024 1.024-1.024 2.048h1.024s1.024-1.024 0-2.048zM820.224 459.776c-5.12 0-10.24-2.048-13.312-6.144-7.168-7.168-7.168-19.456 0-27.648 7.168-7.168 19.456-7.168 27.648 0 7.168 7.168 7.168 19.456 0 27.648-4.096 4.096-9.216 6.144-14.336 6.144zM819.2 440.32v1.024h1.024L819.2 440.32z m0-1.024l1.024 1.024v-1.024H819.2zM724.992 487.424c-5.12 0-10.24-2.048-13.312-6.144-7.168-7.168-7.168-19.456 0-27.648 7.168-7.168 19.456-7.168 27.648 0 7.168 7.168 7.168 19.456 0 27.648-4.096 4.096-9.216 6.144-14.336 6.144z m-1.024-20.48v1.024h1.024l-1.024-1.024z m0 0l1.024 1.024v-1.024h-1.024z" p-id="1762"></path></svg>