<?xml version="1.0" standalone="no"?><!DOCTYPE svg PUBLIC "-//W3C//DTD SVG 1.1//EN" "http://www.w3.org/Graphics/SVG/1.1/DTD/svg11.dtd"><svg t="1769085339854" class="icon" viewBox="0 0 1024 1024" version="1.1" xmlns="http://www.w3.org/2000/svg" p-id="12564" xmlns:xlink="http://www.w3.org/1999/xlink" width="32" height="32"><path d="M512 832a74.666667 74.666667 0 0 1-60.693333-31.36 21.376 21.376 0 1 0-34.773334 24.853333A117.333333 117.333333 0 0 0 512 874.666667a21.333333 21.333333 0 1 0 0-42.666667z" p-id="12565"></path><path d="M826.56 140.693333A129.6 129.6 0 0 0 719.466667 85.333333a131.413333 131.413333 0 0 0-106.666667 55.573334c-46.421333-74.56-154.965333-74.56-201.386667 0A131.413333 131.413333 0 0 0 304.533333 85.333333c-90.496 0.021333-153.834667 89.450667-123.84 174.826667L330.666667 686.293333v71.04a181.333333 181.333333 0 0 0 362.666666 0v-71.04l149.973334-426.133333a129.813333 129.813333 0 0 0-16.746667-119.466667zM650.666667 725.333333h-277.333334v-21.333333h277.333334v21.333333zM455.68 152.64a76.48 76.48 0 0 1 132.586667 58.133333L551.36 661.333333h-78.72l-36.906667-450.56a75.733333 75.733333 0 0 1 19.946667-58.133333z m-223.466667 12.693333A87.786667 87.786667 0 0 1 304.533333 128a89.066667 89.066667 0 0 1 88.213334 81.386667l28.053333 341.866666 9.066667 110.08h-62.72l-146.133334-415.36a87.466667 87.466667 0 0 1 11.2-80.64zM512 896a138.666667 138.666667 0 0 1-138.666667-128h277.333334a138.666667 138.666667 0 0 1-138.666667 128z m290.986667-650.026667L656.853333 661.333333h-62.72l10.666667-126.826666 26.666667-325.12A89.066667 89.066667 0 0 1 719.466667 128c61.141333-0.128 103.957333 60.352 83.52 117.973333z" p-id="12566"></path></svg>