<?xml version="1.0" standalone="no"?><!DOCTYPE svg PUBLIC "-//W3C//DTD SVG 1.1//EN" "http://www.w3.org/Graphics/SVG/1.1/DTD/svg11.dtd"><svg t="1769086625977" class="icon" viewBox="0 0 1024 1024" version="1.1" xmlns="http://www.w3.org/2000/svg" p-id="2850" xmlns:xlink="http://www.w3.org/1999/xlink" width="32" height="32"><path d="M237.568 590.848c-96.256 0-174.08-77.824-174.08-174.08s77.824-174.08 174.08-174.08c17.408 0 35.84 3.072 52.224 8.192 25.6-71.68 94.208-120.832 172.032-120.832 40.96 0 79.872 13.312 111.616 37.888 24.576-23.552 57.344-37.888 92.16-37.888 62.464 0 115.712 43.008 129.024 102.4 4.096 0 9.216-1.024 13.312-1.024 84.992 0 156.672 70.656 156.672 154.624 0 84.992-68.608 153.6-153.6 153.6-80.896 0-148.48-63.488-153.6-143.36-9.216-1.024-18.432-2.048-27.648-5.12-29.696 65.536-94.208 107.52-166.912 107.52-22.528 0-45.056-4.096-66.56-12.288-26.624 62.464-89.088 104.448-158.72 104.448z m0-307.2c-73.728 0-133.12 59.392-133.12 133.12s59.392 133.12 133.12 133.12c59.392 0 111.616-39.936 128-96.256 2.048-6.144 6.144-11.264 12.288-13.312 6.144-2.048 12.288-2.048 17.408 1.024 20.48 11.264 44.032 17.408 67.584 17.408 62.464 0 116.736-39.936 136.192-99.328 2.048-6.144 6.144-10.24 11.264-12.288 5.12-2.048 11.264-2.048 17.408 1.024 11.264 6.144 25.6 9.216 39.936 9.216h6.144c6.144-2.048 12.288 0 17.408 4.096s8.192 10.24 8.192 16.384c0 2.048 0 5.12-1.024 7.168v4.096c0 62.464 50.176 112.64 112.64 112.64s112.64-50.176 112.64-112.64c0-61.44-53.248-113.664-115.712-113.664-10.24 0-18.432 1.024-24.576 3.072-6.144 2.048-12.288 1.024-18.432-2.048s-8.192-9.216-9.216-15.36c-2.048-48.128-43.008-86.016-91.136-86.016-28.672 0-57.344 14.336-73.728 37.888-3.072 5.12-9.216 8.192-14.336 8.192-6.144 1.024-12.288-1.024-16.384-6.144-26.624-25.6-62.464-39.936-99.328-39.936-66.56 0-123.904 46.08-138.24 110.592-1.024 6.144-5.12 11.264-11.264 14.336-5.12 3.072-12.288 3.072-17.408 0-16.384-12.288-35.84-16.384-56.32-16.384zM541.696 894.976c-86.016 0-174.08-29.696-174.08-87.04 0-11.264 9.216-20.48 20.48-20.48s20.48 9.216 20.48 20.48c0 18.432 53.248 46.08 133.12 46.08s133.12-27.648 133.12-46.08c0-11.264 9.216-20.48 20.48-20.48s20.48 9.216 20.48 20.48c0 57.344-88.064 87.04-174.08 87.04z" p-id="2851"></path><path d="M389.12 833.536c-11.264 0-20.48-9.216-20.48-20.48 0-121.856-24.576-208.896-64.512-233.472-9.216-6.144-12.288-18.432-7.168-27.648 6.144-9.216 18.432-12.288 27.648-7.168C378.88 577.536 409.6 672.768 409.6 813.056c0 11.264-9.216 20.48-20.48 20.48zM695.296 823.296c-11.264 0-20.48-9.216-20.48-20.48 0-122.88 12.288-277.504 71.68-313.344 9.216-6.144 22.528-3.072 27.648 7.168 6.144 9.216 3.072 22.528-7.168 27.648-23.552 14.336-51.2 96.256-51.2 278.528 0 11.264-9.216 20.48-20.48 20.48zM447.488 578.56c-15.36 0-29.696-5.12-40.96-16.384-16.384-16.384-28.672-28.672-53.248-44.032-9.216-6.144-12.288-18.432-7.168-28.672 6.144-9.216 18.432-12.288 28.672-7.168 28.672 17.408 44.032 33.792 61.44 50.176 7.168 7.168 21.504 5.12 29.696-2.048 12.288-10.24 12.288-25.6 0-44.032-6.144-9.216-4.096-22.528 6.144-28.672 9.216-6.144 22.528-4.096 28.672 6.144 28.672 43.008 13.312 79.872-8.192 98.304-14.336 11.264-29.696 16.384-45.056 16.384zM616.448 556.032c-9.216 0-18.432-2.048-27.648-6.144-40.96-18.432-40.96-61.44-39.936-89.088 0-8.192 0-16.384-1.024-23.552-1.024-11.264 6.144-21.504 17.408-22.528 11.264-1.024 21.504 6.144 22.528 17.408 1.024 9.216 1.024 19.456 1.024 29.696-1.024 29.696 1.024 44.032 15.36 51.2 14.336 6.144 32.768 7.168 75.776-62.464 6.144-9.216 18.432-12.288 28.672-7.168 9.216 6.144 12.288 18.432 7.168 28.672-19.456 30.72-52.224 83.968-99.328 83.968z" p-id="2852"></path></svg>