<?xml version="1.0" standalone="no"?><!DOCTYPE svg PUBLIC "-//W3C//DTD SVG 1.1//EN" "http://www.w3.org/Graphics/SVG/1.1/DTD/svg11.dtd"><svg t="1769086622164" class="icon" viewBox="0 0 1024 1024" version="1.1" xmlns="http://www.w3.org/2000/svg" p-id="2694" xmlns:xlink="http://www.w3.org/1999/xlink" width="32" height="32"><path d="M124.928 919.552c-3.072 0-6.144-1.024-9.216-2.048-10.24-5.12-13.312-17.408-8.192-27.648 1.024-1.024 46.08-90.112 7.168-172.032-69.632-143.36-38.912-318.464 78.848-436.224 73.728-73.728 171.008-114.688 275.456-114.688s201.728 40.96 275.456 114.688c8.192 8.192 8.192 20.48 0 28.672-8.192 8.192-20.48 8.192-28.672 0-65.536-65.536-153.6-102.4-245.76-102.4s-180.224 35.84-245.76 102.4c-104.448 104.448-133.12 261.12-70.656 389.12 49.152 101.376-5.12 204.8-7.168 208.896-7.168 7.168-14.336 11.264-21.504 11.264z" p-id="2695"></path><path d="M466.944 947.2c-55.296 0-109.568-12.288-160.768-36.864-81.92-39.936-171.008 6.144-172.032 7.168-10.24 5.12-22.528 1.024-27.648-8.192-5.12-10.24-2.048-22.528 8.192-27.648 4.096-2.048 107.52-56.32 208.896-7.168 128 62.464 284.672 33.792 389.12-70.656 65.536-65.536 102.4-153.6 102.4-245.76 0-93.184-35.84-180.224-102.4-245.76-8.192-8.192-8.192-20.48 0-28.672 8.192-8.192 20.48-8.192 28.672 0 73.728 73.728 114.688 171.008 114.688 275.456 0 103.424-40.96 201.728-114.688 275.456-74.752 72.704-174.08 112.64-274.432 112.64z" p-id="2696"></path><path d="M777.216 369.664c-7.168 0-14.336-4.096-18.432-11.264-5.12-10.24-1.024-22.528 9.216-27.648 1.024-1.024 4.096-4.096 6.144-5.12l59.392-59.392c20.48-20.48 20.48-54.272 0-75.776-10.24-10.24-23.552-15.36-37.888-15.36s-27.648 5.12-37.888 15.36l-59.392 59.392c-3.072 3.072-6.144 6.144-8.192 10.24-7.168 9.216-19.456 11.264-28.672 4.096-9.216-7.168-11.264-19.456-4.096-28.672 3.072-4.096 7.168-9.216 12.288-14.336l59.392-59.392c17.408-17.408 40.96-27.648 66.56-27.648s49.152 10.24 66.56 27.648c36.864 36.864 36.864 96.256 0 133.12l-59.392 59.392c-4.096 4.096-9.216 9.216-16.384 13.312-3.072 1.024-6.144 2.048-9.216 2.048z" p-id="2697"></path><path d="M852.992 456.704h-35.84c-11.264 0-20.48-9.216-20.48-20.48s9.216-20.48 20.48-20.48h35.84c29.696 0 53.248-23.552 53.248-53.248 0-29.696-23.552-53.248-53.248-53.248H839.68c-11.264 0-20.48-9.216-20.48-20.48s9.216-20.48 20.48-20.48h13.312c52.224 0 94.208 41.984 94.208 94.208s-41.984 94.208-94.208 94.208zM587.776 227.328c-11.264 0-20.48-9.216-20.48-20.48v-35.84c0-52.224 41.984-94.208 94.208-94.208s94.208 41.984 94.208 94.208V184.32c0 11.264-9.216 20.48-20.48 20.48s-20.48-9.216-20.48-20.48v-13.312c0-29.696-23.552-53.248-53.248-53.248-29.696 0-53.248 23.552-53.248 53.248v35.84c0 11.264-9.216 20.48-20.48 20.48zM251.904 476.16c-3.072 0-6.144-2.048-8.192-4.096-34.816-52.224-77.824-71.68-98.304-81.92l-4.096-2.048c-5.12-2.048-7.168-8.192-5.12-13.312 2.048-5.12 8.192-7.168 13.312-5.12l4.096 2.048c22.528 10.24 68.608 31.744 106.496 89.088 3.072 5.12 2.048 11.264-3.072 14.336-1.024 0-3.072 1.024-5.12 1.024zM251.904 679.936c-3.072 0-6.144-2.048-8.192-4.096-36.864-55.296-92.16-82.944-140.288-102.4-5.12-2.048-8.192-8.192-6.144-13.312 2.048-5.12 8.192-8.192 13.312-6.144 52.224 20.48 110.592 50.176 150.528 110.592 3.072 5.12 2.048 11.264-3.072 14.336-2.048 0-4.096 1.024-6.144 1.024zM465.92 933.888c-5.12 0-9.216-4.096-10.24-9.216-7.168-49.152-20.48-111.616-65.536-161.792-4.096-4.096-3.072-10.24 1.024-14.336 4.096-4.096 10.24-3.072 14.336 1.024 49.152 54.272 64.512 120.832 71.68 172.032 1.024 5.12-3.072 11.264-9.216 11.264-1.024 1.024-2.048 1.024-2.048 1.024z" p-id="2698"></path></svg>