<?xml version="1.0" standalone="no"?><!DOCTYPE svg PUBLIC "-//W3C//DTD SVG 1.1//EN" "http://www.w3.org/Graphics/SVG/1.1/DTD/svg11.dtd"><svg t="1769083121625" class="icon" viewBox="0 0 1024 1024" version="1.1" xmlns="http://www.w3.org/2000/svg" p-id="2656" xmlns:xlink="http://www.w3.org/1999/xlink" width="32" height="32"><path d="M508.928 807.7312c-1.6384 0-3.2768-0.4096-4.9152-1.2288-29.2864-15.7696-50.5856-52.8384-63.6928-110.1824-26.2144-114.8928-10.6496-284.2624 31.3344-342.6304 19.456-32.3584 19.456-50.7904 13.312-69.632-32.3584-70.656-111.616-62.2592-114.8928-61.8496-5.5296 0.6144-10.6496-3.2768-11.264-9.0112-0.6144-5.5296 3.2768-10.6496 9.0112-11.4688 1.024-0.2048 24.7808-2.8672 53.248 4.7104 38.2976 10.24 66.9696 34.2016 82.944 69.4272l0.4096 1.024c9.4208 28.2624 5.12 53.6576-15.36 87.6544l-0.4096 0.8192c-38.7072 53.248-53.0432 217.9072-28.2624 326.4512 11.4688 50.5856 30.1056 84.1728 53.4528 96.6656 4.9152 2.6624 6.7584 8.8064 4.096 13.9264-1.8432 3.2768-5.3248 5.3248-9.0112 5.3248z" fill="" p-id="2657"></path><path d="M192.7168 879.616h-10.24v-10.24c0-79.0528 9.0112-137.0112 28.672-182.6816 16.1792-37.888 39.5264-68.8128 77.0048-101.5808-71.2704-31.1296-134.5536-86.6304-179.6096-157.4912C57.7536 347.5456 35.6352 253.952 45.8752 164.0448l1.2288-10.24 10.24 1.2288c154.624 18.8416 251.904 75.5712 306.176 119.808 59.392 48.3328 81.7152 92.16 82.7392 94.0032 2.4576 5.12 0.4096 11.264-4.5056 13.7216-5.12 2.4576-11.264 0.4096-13.7216-4.5056-0.2048-0.4096-21.7088-42.3936-78.2336-88.064-50.9952-41.1648-141.312-93.7984-284.4672-113.2544C48.5376 366.592 178.176 521.8304 311.296 572.416l16.5888 6.3488-13.7216 11.264c-72.0896 58.9824-109.3632 117.5552-111.0016 268.9024 71.68-3.2768 192.7168-40.96 238.7968-165.4784 2.048-5.3248 7.7824-7.9872 13.1072-6.144 5.3248 2.048 7.9872 7.7824 6.144 13.1072-52.4288 141.5168-193.3312 179.2-268.4928 179.2z" fill="" p-id="2658"></path><path d="M375.3984 548.0448l-14.7456-7.168c-109.9776-53.0432-162.4064-118.5792-186.7776-164.2496-27.0336-50.176-27.2384-87.6544-27.2384-89.2928v-10.6496l10.6496 0.4096c88.4736 3.8912 142.7456 38.2976 172.6464 66.56 32.768 30.9248 44.2368 60.8256 44.8512 62.2592l0.6144 1.8432v140.288z m-207.2576-249.856c2.048 13.7216 7.7824 39.3216 24.3712 69.8368 22.1184 40.5504 67.9936 98.0992 162.4064 146.8416v-103.6288c-2.6624-6.144-14.1312-29.9008-39.7312-53.6576-37.4784-34.6112-86.8352-54.6816-147.0464-59.392zM250.2656 814.8992h-10.24v-10.24c0-55.5008 20.8896-107.1104 60.2112-148.8896 29.696-31.5392 59.1872-46.2848 60.416-46.8992 5.12-2.4576 11.264-0.4096 13.7216 4.5056 2.4576 5.12 0.4096 11.264-4.5056 13.7216-0.2048 0.2048-27.8528 14.1312-55.0912 43.2128-33.3824 35.6352-51.4048 77.2096-53.8624 123.4944 60.0064-6.5536 102.6048-66.3552 103.2192-66.9696 3.2768-4.7104 9.6256-5.7344 14.336-2.4576 4.7104 3.2768 5.7344 9.6256 2.4576 14.336-2.4576 3.072-54.4768 76.1856-130.6624 76.1856z" fill="" p-id="2659"></path><path d="M516.096 807.7312c-3.6864 0-7.168-2.048-9.0112-5.3248-2.6624-4.9152-0.8192-11.264 4.096-13.9264 23.3472-12.4928 41.984-46.08 53.4528-96.6656 24.7808-108.544 10.4448-273.2032-28.2624-326.4512l-0.4096-0.8192c-20.2752-33.792-24.7808-59.1872-15.36-87.6544l0.4096-1.024c15.9744-35.2256 44.6464-59.1872 82.944-69.4272 28.4672-7.5776 52.224-4.9152 53.248-4.7104 5.5296 0.6144 9.6256 5.7344 9.0112 11.4688-0.6144 5.5296-5.7344 9.6256-11.4688 9.0112-3.2768-0.4096-82.5344-8.8064-114.8928 61.8496-6.144 18.8416-5.9392 37.2736 13.312 69.632 41.984 58.368 57.5488 227.9424 31.3344 342.8352-13.1072 57.344-34.6112 94.4128-63.6928 110.1824-1.4336 0.6144-3.072 1.024-4.7104 1.024z" fill="" p-id="2660"></path><path d="M842.5472 879.616h-10.24c-75.1616 0-216.064-37.6832-268.288-179.2-2.048-5.3248 0.8192-11.264 6.144-13.1072 5.3248-2.048 11.264 0.8192 13.1072 6.144 45.8752 124.7232 167.1168 162.2016 238.7968 165.4784-1.6384-151.552-38.912-209.92-111.0016-268.9024l-13.7216-11.264 16.5888-6.3488c133.12-50.7904 262.7584-205.824 245.9648-395.6736-143.7696 19.456-234.2912 72.4992-285.2864 114.0736-56.1152 45.6704-77.0048 86.8352-77.2096 87.2448-2.4576 5.12-8.6016 7.168-13.7216 4.5056-5.12-2.4576-7.168-8.6016-4.5056-13.7216 0.8192-1.8432 23.1424-45.6704 82.7392-94.0032 54.272-44.2368 151.552-100.9664 306.176-119.808l10.24-1.2288 1.2288 10.24c10.4448 89.9072-11.8784 183.5008-62.6688 263.5776-44.8512 70.8608-108.3392 126.3616-179.6096 157.4912 37.4784 32.768 60.8256 63.8976 77.0048 101.5808 19.456 45.6704 28.672 103.6288 28.672 182.6816v10.24z" fill="" p-id="2661"></path><path d="M649.6256 548.0448V407.552l0.6144-1.8432c0.4096-1.2288 12.0832-31.3344 44.8512-62.2592 29.9008-28.2624 84.1728-62.6688 172.6464-66.56l10.6496-0.4096v10.6496c0 1.6384-0.4096 39.1168-27.2384 89.2928-24.3712 45.6704-76.8 111.2064-186.7776 164.2496l-14.7456 7.3728z m20.48-136.6016v103.6288c94.4128-48.9472 140.288-106.496 162.4064-146.8416 16.5888-30.5152 22.3232-56.1152 24.3712-69.8368-136.8064 10.6496-181.0432 100.1472-186.7776 113.0496zM784.9984 814.8992h-10.24c-76.1856 0-128.2048-73.1136-130.4576-76.1856-3.2768-4.7104-2.048-11.0592 2.4576-14.336 4.7104-3.2768 11.0592-2.048 14.336 2.4576 0.6144 0.8192 43.4176 60.416 103.2192 66.9696-6.144-114.0736-107.9296-166.2976-108.9536-166.7072-5.12-2.4576-7.168-8.6016-4.5056-13.7216s8.6016-7.168 13.7216-4.5056c1.2288 0.6144 30.72 15.5648 60.416 46.8992 39.3216 41.7792 60.2112 93.3888 60.2112 148.8896v10.24z" fill="" p-id="2662"></path><path d="M508.928 599.4496c-26.8288 0-52.6336-6.7584-76.3904-20.0704-4.9152-2.8672-6.7584-9.0112-3.8912-13.9264 2.8672-4.9152 9.0112-6.7584 13.9264-3.8912 20.6848 11.6736 43.008 17.6128 66.1504 17.6128 7.7824 0 15.7696-0.6144 23.552-2.048 5.5296-1.024 10.8544 2.6624 11.8784 8.3968s-2.6624 10.8544-8.3968 11.8784c-8.8064 1.2288-18.0224 2.048-26.8288 2.048z" fill="" p-id="2663"></path><path d="M492.7488 675.6352c-7.7824 0-15.36-0.6144-22.7328-1.6384-7.168-1.024-14.7456-2.6624-22.7328-5.12-5.3248-1.6384-8.6016-7.3728-6.9632-12.6976 1.6384-5.3248 7.3728-8.6016 12.6976-6.9632 7.168 2.048 13.5168 3.4816 19.8656 4.3008 7.7824 1.024 15.5648 1.4336 23.7568 1.4336h0.2048c5.5296 0 10.0352 4.5056 10.24 10.0352 0.2048 5.7344-4.3008 10.4448-10.0352 10.4448-1.4336 0.2048-2.8672 0.2048-4.3008 0.2048z" fill="" p-id="2664"></path></svg>