<?xml version="1.0" standalone="no"?><!DOCTYPE svg PUBLIC "-//W3C//DTD SVG 1.1//EN" "http://www.w3.org/Graphics/SVG/1.1/DTD/svg11.dtd"><svg t="1769083102067" class="icon" viewBox="0 0 1024 1024" version="1.1" xmlns="http://www.w3.org/2000/svg" p-id="2030" xmlns:xlink="http://www.w3.org/1999/xlink" width="32" height="32"><path d="M268.6976 572.0064c-2.048 0-4.096-0.6144-5.7344-1.8432-4.7104-3.2768-5.7344-9.6256-2.6624-14.336 1.024-1.4336 23.1424-32.9728 65.9456-66.1504 39.5264-30.5152 105.0624-67.9936 192.3072-73.1136h0.6144c61.44 0 124.1088 24.1664 181.0432 69.632 42.8032 34.2016 67.1744 68.1984 68.1984 69.4272 3.2768 4.5056 2.2528 11.0592-2.4576 14.336-4.5056 3.2768-11.0592 2.2528-14.336-2.4576-1.024-1.2288-94.8224-130.4576-232.2432-130.6624-156.8768 9.4208-241.4592 129.4336-242.2784 130.4576-2.048 3.072-5.12 4.7104-8.3968 4.7104zM519.168 851.3536h-0.4096c-119.1936-5.12-183.7056-75.776-216.8832-133.9392-35.4304-62.464-43.008-122.88-43.4176-125.5424-0.6144-5.5296 3.2768-10.6496 9.0112-11.4688 5.5296-0.6144 10.6496 3.2768 11.4688 9.0112 0 0.6144 7.5776 59.392 41.1648 118.3744 44.4416 77.824 111.616 119.1936 199.2704 123.0848 79.872 0 142.7456-40.3456 187.1872-120.0128 33.5872-60.2112 43.2128-121.2416 43.4176-121.856 0.8192-5.5296 6.144-9.4208 11.6736-8.6016 5.5296 0.8192 9.4208 6.144 8.6016 11.6736-0.4096 2.6624-10.24 65.1264-45.6704 128.6144-47.7184 85.6064-118.784 130.6624-205.4144 130.6624z" fill="" p-id="2031"></path><path d="M460.8 441.1392c-4.3008 0-8.3968-2.6624-9.8304-7.168l-13.7216-42.5984c-1.6384-5.3248 1.2288-11.0592 6.5536-12.9024 5.3248-1.6384 11.0592 1.2288 12.9024 6.5536l13.7216 42.5984c1.6384 5.3248-1.2288 11.0592-6.5536 12.9024-1.024 0.4096-2.048 0.6144-3.072 0.6144zM572.2112 441.1392c-1.024 0-2.048-0.2048-3.2768-0.4096-5.3248-1.8432-8.3968-7.5776-6.5536-12.9024l13.9264-42.5984c1.8432-5.3248 7.5776-8.3968 12.9024-6.5536 5.3248 1.8432 8.3968 7.5776 6.5536 12.9024l-13.9264 42.5984c-1.2288 4.3008-5.3248 6.9632-9.6256 6.9632z" fill="" p-id="2032"></path><path d="M298.1888 538.2144c-1.2288 0-2.4576-0.2048-3.6864-0.6144-1.024-0.4096-24.1664-9.6256-47.3088-33.792-21.0944-22.3232-46.4896-62.0544-46.4896-124.928 0-54.0672 21.0944-115.0976 59.392-172.2368 33.1776-49.3568 74.9568-88.8832 109.1584-103.0144h0.2048c5.7344-2.2528 12.288-0.6144 16.1792 4.096 4.096 4.7104 4.5056 11.264 1.4336 16.5888-4.096 6.9632-9.8304 15.36-16.1792 25.1904-20.8896 31.3344-55.7056 83.7632-48.7424 105.8816 0.8192 2.4576 2.2528 5.5296 7.3728 7.7824 20.6848 3.2768 35.84-20.2752 46.6944-41.3696 2.2528-4.5056 7.168-6.9632 12.0832-6.144 5.3248 1.024 9.216 5.3248 9.8304 11.0592 3.072 32.5632-8.3968 65.9456-31.9488 94.4128-21.0944 25.1904-49.3568 43.6224-76.1856 48.9472-5.5296 1.024-10.8544-2.4576-12.0832-7.9872-1.024-5.5296 2.4576-10.8544 7.9872-12.0832 33.5872-6.7584 77.2096-42.1888 89.088-88.4736-11.8784 14.1312-28.672 26.0096-50.5856 21.7088l-0.8192-0.6144-0.8192-0.4096c-10.24-4.096-17.2032-11.4688-20.2752-21.0944-9.0112-29.2864 17.8176-73.1136 51.4048-123.2896 1.024-1.4336 1.8432-2.8672 2.8672-4.3008-59.8016 39.936-135.3728 147.456-135.3728 245.1456 0 107.3152 79.872 139.4688 80.6912 139.6736 5.3248 2.048 7.9872 7.9872 5.9392 13.312-1.8432 4.096-5.7344 6.5536-9.8304 6.5536z m96.256-307.4048s0 0.2048-0.2048 0.2048c0 0 0.2048 0 0.2048-0.2048zM226.5088 636.3136c-25.1904 0-56.5248-4.9152-81.92-24.576-29.9008-23.1424-45.056-60.8256-45.056-112.4352 0-5.7344 4.5056-10.24 10.24-10.24s10.24 4.5056 10.24 10.24c0 44.8512 12.4928 77.2096 37.0688 96.256 42.5984 32.768 108.3392 16.1792 108.9536 15.9744 5.5296-1.4336 11.0592 1.8432 12.4928 7.3728 1.4336 5.5296-1.8432 11.0592-7.3728 12.4928-1.4336 0-20.0704 4.9152-44.6464 4.9152zM171.008 702.0544c-49.3568 0-90.7264-15.7696-121.4464-46.2848-4.096-4.096-4.096-10.4448 0-14.5408s10.4448-4.096 14.5408 0c80.6912 80.4864 218.9312 15.5648 220.3648 14.7456 5.12-2.4576 11.264-0.4096 13.7216 4.7104 2.4576 5.12 0.2048 11.264-4.7104 13.7216-1.6384 0.8192-38.2976 18.2272-86.4256 24.9856-12.6976 1.8432-24.576 2.6624-36.0448 2.6624zM133.7344 890.0608c-0.4096 0-1.024 0-1.4336-0.2048-5.5296-0.8192-9.4208-5.9392-8.6016-11.6736 8.3968-58.368 43.6224-106.9056 101.9904-140.0832 43.4176-24.576 83.968-32.1536 85.6064-32.5632 5.5296-1.024 10.8544 2.6624 11.8784 8.192s-2.6624 10.8544-8.192 11.8784c-0.4096 0-39.3216 7.3728-79.6672 30.5152C182.272 786.432 151.552 828.416 144.1792 880.8448c-1.024 5.5296-5.3248 9.216-10.4448 9.216zM240.0256 928.5632c-4.5056 0-8.8064-3.072-9.8304-7.7824-20.6848-82.5344 76.3904-161.3824 80.4864-164.6592 4.5056-3.4816 10.8544-2.8672 14.336 1.6384 3.4816 4.5056 2.8672 10.8544-1.6384 14.336-1.2288 1.024-90.9312 73.9328-73.5232 143.7696 1.4336 5.5296-2.048 11.0592-7.3728 12.4928-0.8192 0.2048-1.6384 0.2048-2.4576 0.2048z" fill="" p-id="2033"></path><path d="M734.8224 538.2144c-4.096 0-7.9872-2.4576-9.6256-6.5536-2.048-5.3248 0.6144-11.264 5.7344-13.312 3.4816-1.4336 80.6912-33.1776 80.6912-139.6736 0-97.4848-75.5712-205.0048-135.5776-245.1456 0.8192 1.4336 1.8432 2.8672 2.8672 4.3008 33.3824 50.176 60.416 94.208 51.4048 123.2896-3.072 9.8304-10.0352 16.9984-20.2752 21.0944l-0.8192 0.4096-1.024 0.2048c-21.9136 4.3008-38.7072-7.5776-50.5856-21.7088 11.8784 46.2848 55.5008 81.7152 89.088 88.4736 5.5296 1.024 9.216 6.5536 7.9872 12.0832-1.024 5.5296-6.5536 9.216-12.0832 7.9872-26.624-5.3248-55.0912-23.552-76.1856-48.9472-23.552-28.4672-35.0208-61.8496-31.9488-94.208 0.6144-5.7344 4.5056-10.24 9.8304-11.264 4.9152-0.8192 9.8304 1.6384 12.288 6.3488 10.8544 20.8896 26.0096 44.4416 46.6944 41.1648 5.12-2.2528 6.5536-5.3248 7.3728-7.7824 6.9632-22.3232-28.0576-74.752-48.7424-105.8816-6.5536-9.8304-12.0832-18.2272-16.1792-25.1904-3.2768-5.3248-2.6624-11.8784 1.4336-16.5888 3.8912-4.7104 10.4448-6.3488 16.1792-4.096h0.2048c67.9936 28.4672 168.7552 156.4672 168.7552 275.2512 0 63.0784-25.1904 102.8096-46.4896 124.928-23.1424 24.1664-46.2848 33.3824-47.3088 33.792-1.2288 0.8192-2.4576 1.024-3.6864 1.024z m-96.256-307.2s0 0.2048 0.2048 0.2048c-0.2048 0-0.2048-0.2048-0.2048-0.2048zM806.5024 636.3136c-24.576 0-43.2128-4.7104-44.8512-5.12-5.5296-1.4336-8.8064-6.9632-7.3728-12.4928 1.4336-5.5296 6.9632-8.8064 12.4928-7.3728 0.8192 0.2048 66.7648 16.7936 109.1584-15.9744 24.576-19.0464 37.0688-51.4048 37.0688-96.256 0-5.7344 4.5056-10.24 10.24-10.24s10.24 4.5056 10.24 10.24c0 51.6096-15.1552 89.4976-45.056 112.4352-25.6 19.6608-56.9344 24.7808-81.92 24.7808zM862.0032 702.0544c-11.4688 0-23.3472-0.8192-35.84-2.6624-48.128-6.7584-84.992-24.1664-86.4256-24.9856-5.12-2.4576-7.168-8.6016-4.7104-13.7216 2.4576-5.12 8.6016-7.168 13.7216-4.7104 1.4336 0.6144 139.6736 65.536 220.3648-14.7456 4.096-4.096 10.4448-3.8912 14.5408 0 4.096 4.096 3.8912 10.4448 0 14.5408-30.9248 30.5152-72.2944 46.2848-121.6512 46.2848zM899.2768 890.0608c-4.9152 0-9.4208-3.6864-10.0352-8.8064-18.0224-126.1568-169.3696-155.0336-170.8032-155.2384-5.5296-1.024-9.216-6.3488-8.192-11.8784 1.024-5.5296 6.3488-9.216 11.8784-8.192 1.6384 0.4096 42.1888 7.7824 85.6064 32.5632 58.368 33.1776 93.5936 81.5104 101.9904 140.0832 0.8192 5.5296-3.072 10.8544-8.6016 11.6736-0.8192-0.2048-1.4336-0.2048-1.8432-0.2048zM792.9856 928.5632c-0.8192 0-1.6384 0-2.4576-0.2048-5.5296-1.4336-8.8064-6.9632-7.3728-12.4928 17.408-70.0416-72.4992-142.9504-73.5232-143.7696-4.5056-3.4816-5.12-10.0352-1.6384-14.336 3.4816-4.5056 10.0352-5.12 14.336-1.6384 4.096 3.2768 101.1712 82.1248 80.4864 164.6592-1.024 4.7104-5.3248 7.7824-9.8304 7.7824z" fill="" p-id="2034"></path><path d="M518.144 769.4336c-94.0032 0-140.4928-88.4736-142.336-92.16-2.6624-5.12-0.6144-11.264 4.5056-13.7216 5.12-2.6624 11.264-0.6144 13.7216 4.5056 0.4096 1.024 42.8032 81.1008 124.3136 81.1008 80.896 0 115.0976-77.2096 116.5312-80.4864 2.2528-5.12 8.192-7.5776 13.5168-5.3248 5.12 2.2528 7.5776 8.192 5.3248 13.5168-1.8432 3.4816-40.96 92.5696-135.5776 92.5696z" fill="" p-id="2035"></path></svg>