<?xml version="1.0" standalone="no"?><!DOCTYPE svg PUBLIC "-//W3C//DTD SVG 1.1//EN" "http://www.w3.org/Graphics/SVG/1.1/DTD/svg11.dtd"><svg t="1769085366610" class="icon" viewBox="0 0 1024 1024" version="1.1" xmlns="http://www.w3.org/2000/svg" p-id="13363" xmlns:xlink="http://www.w3.org/1999/xlink" width="32" height="32"><path d="M914.986667 422.186667a22.293333 22.293333 0 0 0-23.893334 3.52l-78.826666 69.76c-42.666667-36.373333-101.653333-76.906667-170.666667-92.373334l57.92-23.573333a22.186667 22.186667 0 0 0-16.853333-41.066667l-161.28 65.813334c-129.28 32-224 149.333333-228.693334 155.093333-6.4 8.042667-6.4 19.477333 0 27.52 5.333333 6.72 131.306667 162.986667 291.52 162.986667 96 0 179.413333-56.106667 232.96-103.146667 1.6-1.408 3.136-2.901333 4.586667-4.48l68.373333 68.266667c4.16 4.181333 9.813333 6.506667 15.68 6.506666 2.922667 0 5.802667-0.554667 8.533334-1.6 8.256-3.477333 13.632-11.52 13.653333-20.48v-252.586666c0-8.682667-5.12-16.576-13.013333-20.16z m-127.253334 191.253333c-47.68 42.026667-121.706667 92.16-203.52 92.16a144.021333 144.021333 0 0 1-16.64-0.853333V522.666667h-44.373333v173.973333c-85.866667-24.64-156.693333-93.866667-183.786667-123.52 33.28-36.48 131.733333-132.373333 245.333334-132.373333 81.813333 0 155.84 50.026667 203.52 92.053333 2.474667 2.133333 4.693333 4.586667 6.613333 7.253333l0.746667 0.853334a53.333333 53.333333 0 0 1-7.893334 72.106666v0.426667z m96 27.946667l-37.973333-38.08a98.901333 98.901333 0 0 0-5.333333-73.493334l43.306666-38.293333v149.866667z" p-id="13364"></path><path d="M449.386667 544a28.16 28.16 0 1 0 0 56.32 28.16 28.16 0 0 0 0-56.32zM288 820.693333a52.373333 52.373333 0 0 1-104.64 0V401.706667c49.642667-15.146667 69.76-74.581333 39.488-116.757334-30.250667-42.154667-92.992-42.154667-123.242667 0-30.250667 42.176-10.154667 101.610667 39.488 116.757334v418.986666a96.64 96.64 0 0 0 193.28 0v-27.2l37.226667 37.653334 32-31.146667-113.6-114.56v135.253333zM129.706667 329.173333a31.466667 31.466667 0 1 1 31.466666 32 32 32 0 0 1-31.466666-32z" p-id="13365"></path></svg>