<?xml version="1.0" standalone="no"?><!DOCTYPE svg PUBLIC "-//W3C//DTD SVG 1.1//EN" "http://www.w3.org/Graphics/SVG/1.1/DTD/svg11.dtd"><svg t="1769085359767" class="icon" viewBox="0 0 1024 1024" version="1.1" xmlns="http://www.w3.org/2000/svg" p-id="13045" xmlns:xlink="http://www.w3.org/1999/xlink" width="32" height="32"><path d="M848.96 480L738.88 128a21.333333 21.333333 0 0 0-26.666667-14.08L360.106667 224a21.333333 21.333333 0 0 0-12.373334 10.666667l-77.44 147.626666 37.866667 19.84 45.013333-85.973333 43.733334 386.56-39.253334 74.666667a99.818667 99.818667 0 0 0 176.746667 92.8 34.56 34.56 0 0 1 46.506667-14.506667l28.586666 14.933333 19.84-37.76-28.586666-14.933333a76.16 76.16 0 0 0-58.773334-5.333333 77.12 77.12 0 0 0-45.333333 37.866666 57.109333 57.109333 0 0 1-101.013333-53.333333l39.146666-74.666667 342.613334-184.106666-37.866667 72.32 37.866667 19.733333 70.08-133.973333a21.333333 21.333333 0 0 0 1.493333-16.426667z m-56.106667-36.266667l-166.506666-87.146666 87.146666-166.506667 79.36 253.653333z m-204.266666-106.666666l-166.613334-87.466667L675.733333 170.666667l-87.146666 166.4z m-196.373334-54.933334l176.533334 92.48-136.533334 260.693334-40-353.173334zM606.506667 394.666667l176.533333 92.48L469.973333 655.146667l136.533334-260.48z" p-id="13046"></path></svg>