<?xml version="1.0" standalone="no"?><!DOCTYPE svg PUBLIC "-//W3C//DTD SVG 1.1//EN" "http://www.w3.org/Graphics/SVG/1.1/DTD/svg11.dtd"><svg t="1769086613252" class="icon" viewBox="0 0 1024 1024" version="1.1" xmlns="http://www.w3.org/2000/svg" p-id="2227" xmlns:xlink="http://www.w3.org/1999/xlink" width="32" height="32"><path d="M378.88 905.216c-106.496 0-193.536-87.04-193.536-193.536 0-106.496 87.04-192.512 193.536-192.512 11.264 0 20.48 9.216 20.48 20.48s-9.216 20.48-20.48 20.48c-83.968 0-152.576 67.584-152.576 151.552 0 83.968 68.608 152.576 152.576 152.576 11.264 0 20.48 9.216 20.48 20.48s-9.216 20.48-20.48 20.48z" p-id="2228"></path><path d="M379.904 905.216c-11.264 0-20.48-9.216-20.48-20.48s9.216-20.48 20.48-20.48c269.312 0 488.448-219.136 488.448-488.448 0-11.264 9.216-20.48 20.48-20.48s20.48 9.216 20.48 20.48c0 291.84-237.568 529.408-529.408 529.408z" p-id="2229"></path><path d="M888.832 405.504c-11.264 0-20.48-9.216-20.48-20.48 0-83.968-68.608-152.576-152.576-152.576S563.2 301.056 563.2 385.024c0 11.264-9.216 20.48-20.48 20.48s-20.48-9.216-20.48-20.48c0-106.496 87.04-193.536 193.536-193.536 106.496 0 193.536 87.04 193.536 193.536 0 11.264-9.216 20.48-20.48 20.48z" p-id="2230"></path><path d="M378.88 560.128c-11.264 0-20.48-9.216-20.48-20.48s9.216-20.48 20.48-20.48c78.848 0 143.36-64.512 143.36-143.36 0-11.264 9.216-20.48 20.48-20.48s20.48 9.216 20.48 20.48c0 101.376-82.944 184.32-184.32 184.32zM873.472 284.672c-11.264 0-23.552-1.024-37.888-4.096-11.264-2.048-18.432-13.312-15.36-24.576 2.048-11.264 13.312-18.432 24.576-15.36 38.912 8.192 58.368 0 63.488-10.24 3.072-6.144 1.024-13.312-4.096-17.408-7.168-6.144-18.432-3.072-31.744 6.144-8.192 6.144-19.456 5.12-26.624-2.048-7.168-7.168-8.192-18.432-2.048-26.624 20.48-29.696 20.48-52.224 14.336-63.488-2.048-4.096-6.144-8.192-14.336-7.168-11.264 1.024-28.672 15.36-40.96 50.176-3.072 9.216-12.288 15.36-22.528 13.312-10.24-2.048-17.408-10.24-17.408-20.48 0-18.432-6.144-27.648-12.288-29.696-4.096-1.024-8.192 0-11.264 4.096-7.168 8.192-8.192 30.72 12.288 63.488 6.144 9.216 3.072 22.528-7.168 27.648-9.216 6.144-22.528 3.072-28.672-7.168-37.888-62.464-19.456-98.304-9.216-110.592 14.336-17.408 36.864-23.552 57.344-16.384 9.216 3.072 17.408 9.216 23.552 16.384 19.456-25.6 41.984-30.72 52.224-31.744 21.504-2.048 43.008 8.192 54.272 27.648 10.24 17.408 12.288 38.912 6.144 61.44 12.288 1.024 23.552 6.144 30.72 12.288 19.456 16.384 25.6 44.032 14.336 66.56-7.168 13.312-24.576 37.888-71.68 37.888zM211.968 944.128c-17.408 0-33.792-8.192-43.008-23.552-5.12-8.192-8.192-17.408-8.192-26.624-30.72 8.192-51.2-1.024-60.416-7.168C81.92 875.52 71.68 854.016 74.752 831.488c2.048-19.456 14.336-36.864 32.768-51.2-8.192-7.168-13.312-15.36-16.384-25.6-6.144-22.528 4.096-47.104 25.6-60.416 11.264-7.168 51.2-25.6 104.448 21.504 8.192 7.168 9.216 20.48 2.048 28.672-7.168 8.192-20.48 9.216-28.672 2.048-25.6-22.528-45.056-23.552-55.296-17.408-5.12 3.072-9.216 9.216-7.168 14.336 1.024 5.12 10.24 11.264 29.696 12.288 10.24 0 18.432 8.192 19.456 17.408 1.024 10.24-5.12 19.456-14.336 22.528-34.816 10.24-49.152 28.672-50.176 40.96-1.024 4.096 0 10.24 7.168 14.336 10.24 6.144 32.768 6.144 62.464-14.336 8.192-5.12 19.456-4.096 26.624 3.072 7.168 7.168 7.168 18.432 1.024 26.624-11.264 14.336-11.264 25.6-8.192 30.72 2.048 4.096 7.168 5.12 11.264 4.096 11.264-2.048 25.6-19.456 29.696-57.344 1.024-11.264 11.264-19.456 22.528-18.432 11.264 1.024 19.456 11.264 18.432 22.528-8.192 72.704-46.08 89.088-61.44 92.16-6.144 4.096-10.24 4.096-14.336 4.096zM422.912 804.864c-5.12 0-9.216-4.096-10.24-9.216-1.024-5.12 3.072-10.24 9.216-11.264 155.648-17.408 286.72-119.808 342.016-265.216 2.048-5.12 8.192-8.192 13.312-6.144 5.12 2.048 8.192 8.192 6.144 13.312-57.344 152.576-194.56 259.072-358.4 277.504-1.024 1.024-2.048 1.024-2.048 1.024zM789.504 475.136h-2.048c-5.12-1.024-9.216-7.168-7.168-12.288 5.12-21.504 8.192-41.984 9.216-63.488 0-6.144 5.12-10.24 10.24-10.24 6.144 0 10.24 5.12 10.24 10.24-1.024 22.528-4.096 45.056-9.216 67.584-2.048 5.12-6.144 8.192-11.264 8.192z" p-id="2231"></path></svg>