<?xml version="1.0" standalone="no"?><!DOCTYPE svg PUBLIC "-//W3C//DTD SVG 1.1//EN" "http://www.w3.org/Graphics/SVG/1.1/DTD/svg11.dtd"><svg t="1769086598580" class="icon" viewBox="0 0 1024 1024" version="1.1" xmlns="http://www.w3.org/2000/svg" p-id="1603" xmlns:xlink="http://www.w3.org/1999/xlink" width="32" height="32"><path d="M508.928 817.152c-4.096 0-8.192-3.072-10.24-7.168-18.432-69.632-55.296-132.096-103.424-181.248-51.2-51.2-112.64-86.016-180.224-103.424-5.12-1.024-9.216-7.168-7.168-12.288 1.024-5.12 7.168-9.216 12.288-7.168C290.816 523.264 356.352 561.152 409.6 614.4c51.2 51.2 89.088 116.736 109.568 189.44 1.024 5.12-2.048 11.264-7.168 12.288-1.024 1.024-2.048 1.024-3.072 1.024zM564.224 667.648c-5.12 0-10.24-4.096-10.24-10.24-1.024-18.432-8.192-35.84-21.504-48.128-12.288-12.288-30.72-20.48-48.128-21.504-6.144 0-10.24-5.12-9.216-11.264 0-6.144 5.12-10.24 11.264-9.216 23.552 1.024 46.08 11.264 62.464 27.648 16.384 16.384 26.624 37.888 27.648 62.464-2.048 5.12-6.144 10.24-12.288 10.24zM485.376 510.976c-5.12 0-10.24-4.096-10.24-10.24-1.024-18.432-8.192-35.84-21.504-48.128-12.288-12.288-30.72-20.48-48.128-21.504-6.144 0-10.24-5.12-9.216-11.264 0-6.144 5.12-10.24 11.264-9.216 23.552 1.024 46.08 11.264 62.464 27.648 16.384 16.384 26.624 37.888 27.648 62.464-2.048 5.12-6.144 10.24-12.288 10.24zM600.064 514.048c-5.12 0-10.24-4.096-10.24-10.24-1.024-18.432-8.192-35.84-21.504-48.128-12.288-12.288-30.72-20.48-48.128-21.504-6.144 0-10.24-5.12-9.216-11.264 0-6.144 5.12-10.24 11.264-9.216 23.552 1.024 46.08 11.264 62.464 27.648 16.384 16.384 26.624 37.888 27.648 62.464-2.048 5.12-6.144 10.24-12.288 10.24zM261.12 805.888c-11.264 0-22.528-4.096-30.72-12.288-8.192-8.192-12.288-18.432-12.288-30.72 0-11.264 4.096-22.528 12.288-30.72 8.192-8.192 18.432-12.288 30.72-12.288s22.528 4.096 30.72 12.288c8.192 8.192 12.288 18.432 12.288 30.72 0 11.264-4.096 22.528-12.288 30.72-8.192 8.192-19.456 12.288-30.72 12.288z m0-45.056h-1.024l-1.024 1.024c0 1.024 0 1.024 1.024 1.024 1.024 1.024 2.048 1.024 3.072 0 1.024-1.024 1.024-2.048 0-3.072-1.024 1.024-1.024 1.024-2.048 1.024z m-16.384-14.336z" p-id="1604"></path><path d="M332.8 945.152c-67.584 0-132.096-20.48-183.296-70.656-129.024-129.024-59.392-354.304 40.96-465.92 23.552-26.624 50.176-48.128 75.776-62.464 68.608-38.912 126.976-45.056 164.864-45.056 23.552 0 46.08 1.024 65.536 3.072 73.728 6.144 107.52 8.192 129.024-112.64 14.336-80.896 58.368-109.568 95.232-110.592 38.912 0 71.68 31.744 79.872 77.824v1.024s3.072 18.432 22.528 40.96c22.528 20.48 38.912 22.528 39.936 22.528h2.048c47.104 8.192 77.824 40.96 77.824 80.896 0 36.864-28.672 80.896-109.568 95.232-120.832 19.456-117.76 51.2-111.616 128 4.096 57.344 10.24 136.192-41.984 230.4-4.096 6.144-8.192 13.312-12.288 18.432 21.504 13.312 33.792 32.768 33.792 53.248 0 39.936-43.008 70.656-98.304 70.656-21.504 0-43.008-5.12-60.416-14.336-62.464 35.84-137.216 59.392-209.92 59.392zM440.32 339.968h-7.168c-35.84 1.024-86.016 6.144-145.408 39.936-22.528 12.288-45.056 30.72-65.536 54.272-89.088 100.352-154.624 299.008-43.008 410.624 91.136 91.136 247.808 63.488 353.28-1.024 7.168-4.096 16.384-4.096 23.552 1.024 11.264 9.216 28.672 14.336 47.104 14.336 32.768 0 57.344-15.36 57.344-29.696 0-8.192-10.24-19.456-30.72-25.6-6.144-2.048-11.264-7.168-13.312-13.312s0-13.312 4.096-19.456c8.192-10.24 16.384-21.504 23.552-33.792 47.104-82.944 40.96-151.552 36.864-206.848-6.144-77.824-11.264-145.408 147.456-174.08 56.32-10.24 75.776-35.84 75.776-55.296 0-18.432-17.408-34.816-44.032-39.936-7.168-1.024-32.768-6.144-63.488-33.792l-1.024-1.024c-27.648-30.72-32.768-57.344-33.792-62.464-5.12-26.624-21.504-44.032-39.936-44.032-19.456 0-45.056 20.48-54.272 76.8-27.648 158.72-95.232 152.576-173.056 146.432-17.408-2.048-34.816-3.072-54.272-3.072z" p-id="1605"></path><path d="M205.824 441.344c-9.216 0-16.384-5.12-19.456-14.336-17.408-57.344 18.432-118.784 82.944-141.312 51.2-16.384 134.144-13.312 175.104 17.408 9.216 7.168 11.264 19.456 4.096 28.672s-19.456 11.264-28.672 4.096c-28.672-21.504-99.328-23.552-138.24-11.264-41.984 14.336-67.584 55.296-56.32 90.112 3.072 11.264-3.072 22.528-13.312 25.6-2.048 1.024-4.096 1.024-6.144 1.024z" p-id="1606"></path></svg>