<?xml version="1.0" standalone="no"?><!DOCTYPE svg PUBLIC "-//W3C//DTD SVG 1.1//EN" "http://www.w3.org/Graphics/SVG/1.1/DTD/svg11.dtd"><svg t="1769083129733" class="icon" viewBox="0 0 1024 1024" version="1.1" xmlns="http://www.w3.org/2000/svg" p-id="2816" xmlns:xlink="http://www.w3.org/1999/xlink" width="32" height="32"><path d="M430.4896 466.944c-5.7344 0-10.24-4.5056-10.24-10.24v-86.6304c0-73.9328-60.2112-134.144-134.144-134.144-60.0064 0-113.0496 40.3456-129.2288 98.0992-1.4336 5.5296-7.168 8.6016-12.6976 7.168-5.5296-1.4336-8.6016-7.168-7.168-12.6976 18.6368-66.56 79.872-113.2544 148.8896-113.2544 85.1968 0 154.624 69.4272 154.624 154.624V456.704c0.2048 5.7344-4.3008 10.24-10.0352 10.24z" fill="" p-id="2817"></path><path d="M351.232 481.4848c-5.7344 0-10.24-4.5056-10.24-10.24s4.5056-10.24 10.24-10.24L788.48 460.8c5.7344 0 10.24 4.5056 10.24 10.24s-4.5056 10.24-10.24 10.24l-437.248 0.2048z" fill="" p-id="2818"></path><path d="M488.448 827.8016c-196.8128 0-356.7616-159.9488-356.7616-356.5568 0-5.7344 4.5056-10.24 10.24-10.24s10.24 4.5056 10.24 10.24c0 185.344 150.9376 336.0768 336.2816 336.0768 185.344 0 336.0768-150.7328 336.0768-336.0768V286.72c0-43.2128 35.0208-78.2336 78.2336-78.2336S980.992 243.5072 980.992 286.72v118.9888c0 5.7344-4.5056 10.24-10.24 10.24s-10.24-4.5056-10.24-10.24V286.72c0-31.744-26.0096-57.7536-57.7536-57.7536s-57.7536 26.0096-57.7536 57.7536v184.5248c0 196.608-159.9488 356.5568-356.5568 356.5568z" fill="" p-id="2819"></path><path d="M899.6864 438.0672c-5.7344 0-10.24-4.5056-10.24-10.24v-100.9664c0-14.336-6.5536-27.8528-17.8176-36.864-4.3008-3.4816-5.12-10.0352-1.4336-14.336s10.0352-5.12 14.336-1.4336c15.9744 13.1072 25.1904 32.3584 25.1904 52.8384V428.032c0.2048 5.5296-4.3008 10.0352-10.0352 10.0352z" fill="" p-id="2820"></path><path d="M257.4336 319.6928m-18.0224 0a18.0224 18.0224 0 1 0 36.0448 0 18.0224 18.0224 0 1 0-36.0448 0Z" fill="" p-id="2821"></path><path d="M513.024 726.8352h-96.8704c-5.7344 0-10.24-4.5056-10.24-10.24s4.5056-10.24 10.24-10.24h96.8704c38.0928 0 69.2224-26.2144 69.2224-58.368s-31.1296-58.368-69.2224-58.368h-96.8704c-5.7344 0-10.24-4.5056-10.24-10.24s4.5056-10.24 10.24-10.24h96.8704c49.5616 0 89.7024 35.4304 89.7024 78.848s-40.1408 78.848-89.7024 78.848zM132.3008 419.0208c-21.7088 0-87.2448-17.2032-87.2448-48.7424S110.592 321.536 132.3008 321.536c26.8288 0 48.7424 21.9136 48.7424 48.7424 0 26.8288-21.9136 48.7424-48.7424 48.7424z m0-77.0048c-8.3968 0-26.2144 3.6864-42.5984 10.4448-17.6128 7.3728-24.1664 14.7456-24.1664 17.8176s6.5536 10.24 24.1664 17.8176c16.1792 6.7584 33.9968 10.4448 42.5984 10.4448 15.5648 0 28.2624-12.6976 28.2624-28.2624S147.8656 342.016 132.3008 342.016zM215.8592 241.4592c-2.6624 0-5.3248-0.2048-7.9872-0.6144-29.0816-4.3008-49.3568-31.5392-45.056-60.8256 2.6624-18.6368 15.1552-34.6112 32.768-41.7792 5.3248-2.048 11.264 0.4096 13.312 5.5296 2.048 5.3248-0.4096 11.264-5.5296 13.312-10.8544 4.5056-18.432 14.336-20.0704 25.8048-2.6624 18.0224 9.8304 34.816 27.8528 37.4784 8.8064 1.2288 17.408-0.8192 24.576-6.144 6.9632-5.3248 11.6736-12.9024 12.9024-21.7088 0.8192-5.5296 5.9392-9.4208 11.6736-8.6016 5.5296 0.8192 9.4208 5.9392 8.6016 11.6736-2.048 14.1312-9.4208 26.624-20.8896 35.0208-9.6256 7.3728-20.8896 10.8544-32.1536 10.8544z" fill="" p-id="2822"></path><path d="M309.6576 226.0992c-4.096 0-7.9872-0.2048-12.0832-0.8192-17.8176-2.6624-34.2016-11.0592-46.2848-23.3472-3.8912-4.096-3.8912-10.4448 0.2048-14.5408 4.096-3.8912 10.4448-3.8912 14.5408 0.2048 9.0112 9.216 21.504 15.5648 34.816 17.6128 16.1792 2.4576 32.5632-1.8432 45.8752-11.6736 13.312-9.8304 21.9136-24.3712 24.3712-40.5504 2.4576-16.384-1.6384-32.768-11.4688-46.08s-24.3712-21.9136-40.5504-24.3712c-26.624-4.096-53.248 10.0352-64.9216 34.4064-2.4576 5.12-8.6016 7.168-13.7216 4.9152-5.12-2.4576-7.168-8.6016-4.9152-13.7216 15.5648-32.3584 50.9952-51.2 86.4256-45.8752 21.7088 3.072 40.96 14.7456 54.0672 32.3584 13.1072 17.6128 18.432 39.3216 15.36 61.0304-3.072 21.7088-14.7456 40.96-32.3584 54.0672-14.7456 10.6496-31.9488 16.384-49.3568 16.384zM455.8848 943.3088c-5.7344 0-10.24-4.5056-10.24-10.24v-115.5072c0-5.7344 4.5056-10.24 10.24-10.24s10.24 4.5056 10.24 10.24v115.5072c0 5.7344-4.5056 10.24-10.24 10.24z" fill="" p-id="2823"></path><path d="M527.9744 957.8496h-144.384c-5.7344 0-10.24-4.5056-10.24-10.24s4.5056-10.24 10.24-10.24h144.384c5.7344 0 10.24 4.5056 10.24 10.24s-4.5056 10.24-10.24 10.24zM556.8512 943.3088c-5.7344 0-10.24-4.5056-10.24-10.24v-115.5072c0-5.7344 4.5056-10.24 10.24-10.24s10.24 4.5056 10.24 10.24v115.5072c0 5.7344-4.5056 10.24-10.24 10.24z" fill="" p-id="2824"></path><path d="M628.9408 957.8496h-144.1792c-5.7344 0-10.24-4.5056-10.24-10.24s4.5056-10.24 10.24-10.24h144.1792c5.7344 0 10.24 4.5056 10.24 10.24s-4.5056 10.24-10.24 10.24z" fill="" p-id="2825"></path></svg>