<?xml version="1.0" standalone="no"?><!DOCTYPE svg PUBLIC "-//W3C//DTD SVG 1.1//EN" "http://www.w3.org/Graphics/SVG/1.1/DTD/svg11.dtd"><svg t="1769086605251" class="icon" viewBox="0 0 1024 1024" version="1.1" xmlns="http://www.w3.org/2000/svg" p-id="1914" xmlns:xlink="http://www.w3.org/1999/xlink" width="32" height="32"><path d="M520.192 879.616c-143.36 0-335.872-12.288-425.984-100.352C61.44 746.496 45.056 706.56 45.056 659.456c0-242.688 216.064-515.072 504.832-515.072h11.264c91.136 0 179.2 21.504 249.856 62.464 36.864-20.48 76.8-19.456 100.352 4.096 21.504 22.528 24.576 57.344 8.192 92.16 38.912 54.272 58.368 118.784 58.368 192.512 0 98.304-28.672 186.368-82.944 254.976-7.168 9.216-19.456 10.24-28.672 3.072-9.216-7.168-10.24-19.456-3.072-28.672 49.152-61.44 74.752-141.312 74.752-230.4 0-68.608-19.456-129.024-57.344-178.176-5.12-6.144-6.144-15.36-1.024-22.528 13.312-21.504 14.336-44.032 4.096-55.296-9.216-9.216-34.816-9.216-59.392 8.192-7.168 4.096-15.36 5.12-22.528 0-65.536-39.936-150.528-62.464-239.616-62.464h-11.264c-262.144 1.024-464.896 256-464.896 475.136 0 35.84 12.288 65.536 37.888 90.112 96.256 95.232 354.304 90.112 479.232 87.04 17.408 0 32.768-1.024 46.08-1.024 52.224 0 109.568-20.48 157.696-57.344 9.216-7.168 21.504-5.12 28.672 4.096 7.168 9.216 5.12 21.504-4.096 28.672-56.32 41.984-120.832 65.536-182.272 65.536-12.288 0-27.648 0-45.056 1.024-25.6 1.024-53.248 2.048-83.968 2.048z" p-id="1915"></path><path d="M353.28 751.616c-22.528 0-39.936-6.144-52.224-16.384-22.528-19.456-26.624-51.2-11.264-83.968 25.6-52.224 14.336-108.544-28.672-152.576-8.192-8.192-8.192-20.48 0-28.672 8.192-8.192 20.48-8.192 28.672 0 55.296 55.296 69.632 132.096 36.864 199.68-3.072 7.168-10.24 24.576 1.024 34.816 15.36 12.288 63.488 13.312 134.144-38.912 110.592-81.92 114.688-118.784 114.688-124.928 0-2.048 0-5.12-5.12-7.168-22.528-15.36-68.608 25.6-106.496 62.464-8.192 8.192-21.504 8.192-28.672 0-8.192-8.192-8.192-21.504 0-28.672 50.176-50.176 108.544-100.352 157.696-67.584 14.336 9.216 22.528 23.552 23.552 40.96 1.024 39.936-43.008 93.184-132.096 157.696-54.272 37.888-98.304 53.248-132.096 53.248z" p-id="1916"></path><path d="M483.328 573.44c-3.072 0-6.144-1.024-9.216-2.048-10.24-5.12-14.336-17.408-9.216-27.648 16.384-32.768-1.024-84.992-27.648-111.616-8.192-8.192-8.192-20.48 0-28.672 8.192-8.192 20.48-8.192 28.672 0 36.864 36.864 61.44 108.544 35.84 158.72-4.096 7.168-11.264 11.264-18.432 11.264zM707.584 802.816c-40.96 0-94.208-14.336-158.72-60.416-9.216-6.144-11.264-19.456-5.12-28.672s19.456-11.264 28.672-5.12c100.352 72.704 164.864 55.296 193.536 37.888 22.528-12.288 34.816-30.72 39.936-40.96 0-1.024 1.024-2.048 2.048-3.072 0 0 1.024-2.048 1.024-4.096 1.024-2.048 1.024-4.096 2.048-5.12 5.12-19.456 11.264-82.944-87.04-159.744-9.216-7.168-10.24-19.456-3.072-28.672 7.168-9.216 19.456-10.24 28.672-3.072 80.896 63.488 118.784 139.264 101.376 203.776 0 1.024 0 1.024-1.024 2.048 0 1.024-1.024 2.048-1.024 4.096-1.024 4.096-3.072 9.216-6.144 14.336-8.192 14.336-25.6 39.936-56.32 56.32-16.384 9.216-43.008 20.48-78.848 20.48z m123.904-103.424z" p-id="1917"></path><path d="M877.568 846.848c-12.288 0-24.576-4.096-34.816-11.264l-70.656-55.296c-9.216-7.168-10.24-19.456-3.072-28.672 7.168-9.216 19.456-10.24 28.672-3.072l69.632 54.272c8.192 5.12 18.432 4.096 25.6-3.072 6.144-8.192 4.096-19.456-4.096-25.6l-70.656-54.272c-9.216-7.168-10.24-19.456-4.096-28.672 7.168-9.216 19.456-10.24 28.672-4.096l70.656 54.272c24.576 20.48 29.696 56.32 11.264 81.92l-1.024 1.024c-11.264 15.36-28.672 22.528-46.08 22.528z m30.72-34.816z" p-id="1918"></path></svg>