<?xml version="1.0" standalone="no"?><!DOCTYPE svg PUBLIC "-//W3C//DTD SVG 1.1//EN" "http://www.w3.org/Graphics/SVG/1.1/DTD/svg11.dtd"><svg t="1769086619301" class="icon" viewBox="0 0 1024 1024" version="1.1" xmlns="http://www.w3.org/2000/svg" p-id="2538" xmlns:xlink="http://www.w3.org/1999/xlink" width="32" height="32"><path d="M417.792 963.584c-88.064 0-175.104-33.792-241.664-100.352-64.512-64.512-100.352-150.528-100.352-241.664s35.84-177.152 100.352-241.664c64.512-64.512 162.816-110.592 261.12-121.856 108.544-12.288 202.752 15.36 266.24 77.824 136.192 136.192 88.064 395.264-44.032 527.36-66.56 66.56-153.6 100.352-241.664 100.352z m70.656-668.672c-15.36 0-29.696 1.024-46.08 3.072-90.112 10.24-178.176 52.224-237.568 110.592-57.344 57.344-88.064 133.12-88.064 212.992 0 79.872 31.744 155.648 88.064 212.992C322.56 952.32 513.024 952.32 630.784 834.56 747.52 717.824 792.576 482.304 674.816 364.544c-45.056-45.056-110.592-69.632-186.368-69.632z" p-id="2539"></path><path d="M730.112 403.456c-5.12 0-10.24-2.048-14.336-6.144-8.192-8.192-8.192-20.48 0-28.672l109.568-109.568c8.192-8.192 20.48-8.192 28.672 0 6.144 6.144 14.336 9.216 21.504 9.216 17.408 0 31.744-14.336 31.744-31.744S892.928 204.8 875.52 204.8h-4.096c-3.072 0-5.12 1.024-7.168 1.024-7.168 0-14.336-4.096-18.432-10.24s-3.072-14.336 1.024-20.48c5.12-8.192 8.192-17.408 8.192-26.624 0-25.6-21.504-47.104-47.104-47.104-25.6 0-47.104 21.504-47.104 47.104 0 14.336 6.144 27.648 17.408 35.84 4.096 4.096 7.168 9.216 7.168 14.336 0 6.144-2.048 11.264-6.144 15.36L668.672 325.632c-8.192 8.192-20.48 8.192-28.672 0-8.192-8.192-8.192-20.48 0-28.672l96.256-97.28c-11.264-14.336-16.384-32.768-16.384-52.224 0-48.128 39.936-88.064 88.064-88.064s88.064 39.936 88.064 88.064c0 6.144-1.024 12.288-2.048 18.432 30.72 8.192 54.272 36.864 54.272 70.656 0 39.936-32.768 72.704-72.704 72.704-11.264 0-23.552-3.072-33.792-9.216l-97.28 97.28c-4.096 4.096-9.216 6.144-14.336 6.144z" p-id="2540"></path><path d="M667.648 671.744m-20.48 0a20.48 20.48 0 1 0 40.96 0 20.48 20.48 0 1 0-40.96 0Z" p-id="2541"></path><path d="M543.744 827.392c-11.264 0-20.48-9.216-20.48-20.48s9.216-20.48 20.48-20.48 20.48 9.216 20.48 20.48-9.216 20.48-20.48 20.48z m0-30.72v10.24-10.24zM533.504 702.464c-11.264 0-20.48-9.216-20.48-20.48s9.216-20.48 20.48-20.48 20.48 9.216 20.48 20.48-9.216 20.48-20.48 20.48z m0-30.72v10.24-10.24z" p-id="2542"></path></svg>